<svg xmlns="http://www.w3.org/2000/svg" xmlns:xlink="http://www.w3.org/1999/xlink" width="32" height="32" viewBox="0 0 32 32">
  <defs>
    <clipPath id="clip-path">
      <rect id="Rectangle_1783" data-name="Rectangle 1783" width="8.343" height="14.823" fill="#fff"/>
    </clipPath>
  </defs>
  <g id="Group_4475" data-name="Group 4475" transform="translate(261 1107) rotate(180)">
    <circle id="Ellipse_44" data-name="Ellipse 44" cx="16" cy="16" r="16" transform="translate(229 1075)" fill="#005a9a"/>
    <g id="Group_4392" data-name="Group 4392" transform="translate(240 1084)">
      <g id="Group_4391" data-name="Group 4391" transform="translate(0 0)" clip-path="url(#clip-path)">
        <path id="Path_2338" data-name="Path 2338" d="M7.558,0c.044.016.087.034.132.049a.924.924,0,0,1,.432,1.47c-.046.056-.1.106-.149.157l-5.6,5.6a1.833,1.833,0,0,1-.147.118c.057.06.1.1.135.142q2.829,2.829,5.658,5.656a.936.936,0,0,1,.3.876.925.925,0,0,1-1.562.485c-.43-.422-.854-.852-1.28-1.277L.359,8.147a.938.938,0,0,1,0-1.478q3.1-3.1,6.2-6.2A1.51,1.51,0,0,1,7.269,0Z" transform="translate(0 0)" fill="#fff"/>
      </g>
    </g>
  </g>
</svg>
