<svg xmlns="http://www.w3.org/2000/svg" xmlns:xlink="http://www.w3.org/1999/xlink" width="24" height="26.71" viewBox="0 0 24 26.71">
  <defs>
    <clipPath id="clip-path">
      <rect id="Rectangle_1784" data-name="Rectangle 1784" width="24" height="26.71" fill="#005a9a"/>
    </clipPath>
  </defs>
  <g id="Group_4395" data-name="Group 4395" transform="translate(0 0)">
    <g id="Group_4394" data-name="Group 4394" transform="translate(0 0)" clip-path="url(#clip-path)">
      <path id="Path_2339" data-name="Path 2339" d="M16.679,22.892a4.781,4.781,0,0,1-9.366,0H2A1.844,1.844,0,0,1,.208,21.83,1.893,1.893,0,0,1,.46,19.739c.589-.8,1.143-1.622,1.7-2.441a1.937,1.937,0,0,0,.3-1.131c0-2.2-.049-4.408.009-6.61A9.229,9.229,0,0,1,8.23.813a9.489,9.489,0,0,1,13.044,6.6,11.3,11.3,0,0,1,.243,2.27c.032,2.144.017,4.288.008,6.432a2.256,2.256,0,0,0,.422,1.365q.847,1.187,1.676,2.386a1.834,1.834,0,0,1,.163,1.97,1.79,1.79,0,0,1-1.672,1.053c-1.7.015-3.395.005-5.093.005h-.343m5.379-1.92c-.576-.831-1.123-1.631-1.682-2.422a4.054,4.054,0,0,1-.756-2.427c.008-2.133.005-4.267,0-6.4,0-.327-.016-.655-.048-.98a7.62,7.62,0,0,0-15.2.78c-.012,2.2-.008,4.407,0,6.61a4.059,4.059,0,0,1-.76,2.426c-.5.713-1,1.433-1.5,2.15-.054.079-.108.157-.18.265Zm-7.4,1.93H9.349a2.774,2.774,0,0,0,2.52,1.893A2.814,2.814,0,0,0,14.657,22.9" transform="translate(0 0)" fill="#005a9a"/>
    </g>
  </g>
</svg>
