<svg id="Group_4404" data-name="Group 4404" xmlns="http://www.w3.org/2000/svg" xmlns:xlink="http://www.w3.org/1999/xlink" width="17.77" height="13.047" viewBox="0 0 17.77 13.047">
  <defs>
    <clipPath id="clip-path">
      <rect id="Rectangle_1787" data-name="Rectangle 1787" width="17.77" height="13.047" fill="#005a9a"/>
    </clipPath>
  </defs>
  <g id="Group_4403" data-name="Group 4403" transform="translate(0 0)" clip-path="url(#clip-path)">
    <path id="Path_2341" data-name="Path 2341" d="M17.769,1.074a2.019,2.019,0,0,1-.541.723Q11.78,7.242,6.334,12.692a.9.9,0,0,1-.963.313,1.142,1.142,0,0,1-.435-.268Q2.616,10.432.307,8.115a.882.882,0,0,1-.266-.931.848.848,0,0,1,.653-.607.835.835,0,0,1,.721.154,2.017,2.017,0,0,1,.206.186Q3.536,8.83,5.449,10.745c.049.049.09.106.175.208a1.362,1.362,0,0,1,.134-.2q5.2-5.2,10.4-10.406A.923.923,0,0,1,17.192.059a.958.958,0,0,1,.577.668Z" transform="translate(0 0)" fill="#005a9a"/>
  </g>
</svg>
