<svg id="Group_4408" data-name="Group 4408" xmlns="http://www.w3.org/2000/svg" xmlns:xlink="http://www.w3.org/1999/xlink" width="15.436" height="15.437" viewBox="0 0 15.436 15.437">
  <defs>
    <clipPath id="clip-path">
      <rect id="Rectangle_1789" data-name="Rectangle 1789" width="15.436" height="15.437" fill="#005a9a"/>
    </clipPath>
  </defs>
  <g id="Group_4407" data-name="Group 4407" transform="translate(0 0)" clip-path="url(#clip-path)">
    <path id="Path_2343" data-name="Path 2343" d="M15.436,14.833c-.016.035-.034.07-.048.107a.751.751,0,0,1-1.214.3c-.041-.037-.079-.077-.118-.116l-6.2-6.2a1.842,1.842,0,0,1-.119-.147c-.067.064-.11.1-.152.145L1.34,15.162a.759.759,0,0,1-.943.18.748.748,0,0,1-.234-1.125,1.846,1.846,0,0,1,.154-.165q3.09-3.091,6.18-6.18c.046-.046.1-.085.163-.14-.055-.058-.094-.1-.135-.142Q3.4,4.463.27,1.337A.76.76,0,0,1,.05.488.816.816,0,0,1,.6,0H.9a1.371,1.371,0,0,1,.546.381Q4.517,3.453,7.587,6.522a.743.743,0,0,1,.09.157l.07-.026A1.811,1.811,0,0,1,7.869,6.5q3.057-3.06,6.115-6.12A1.377,1.377,0,0,1,14.531,0h.3a.87.87,0,0,1,.6.6V.9a1.418,1.418,0,0,1-.392.557Q11.976,4.522,8.915,7.588c-.041.041-.081.085-.137.143.057.048.105.085.147.127q3.054,3.053,6.108,6.105a1.46,1.46,0,0,1,.4.568Z" transform="translate(0 0)" fill="#005a9a"/>
  </g>
</svg>
