<svg xmlns="http://www.w3.org/2000/svg" xmlns:xlink="http://www.w3.org/1999/xlink" width="15.573" height="20" viewBox="0 0 15.573 20">
  <defs>
    <clipPath id="clip-path">
      <rect id="Rectangle_1794" data-name="Rectangle 1794" width="15.573" height="20" fill="#005a9a"/>
    </clipPath>
  </defs>
  <g id="Group_4420" data-name="Group 4420" transform="translate(0 0)">
    <g id="Group_4419" data-name="Group 4419" transform="translate(0 0)" clip-path="url(#clip-path)">
      <path id="Path_2357" data-name="Path 2357" d="M.083,9.987q0-3.957,0-7.912A1.9,1.9,0,0,1,1.494.157,2.064,2.064,0,0,1,2.017.086q4.012-.009,8.021,0a.454.454,0,0,1,.292.119q2.517,2.494,5.019,5a.488.488,0,0,1,.131.31q.008,6.211,0,12.421a1.915,1.915,0,0,1-1.994,1.974q-5.7,0-11.4,0a1.917,1.917,0,0,1-2-1.99q0-3.968,0-7.934M9.146.891H8.9q-3.384,0-6.767,0A1.124,1.124,0,0,0,.892,2.126V17.868A1.125,1.125,0,0,0,2.134,19.1h11.3a1.125,1.125,0,0,0,1.239-1.239q0-5.6,0-11.19c0-.075-.006-.151-.01-.247h-.249c-1.22-.014-2.44-.023-3.659-.043A1.414,1.414,0,0,1,9.391,5.47a2.437,2.437,0,0,1-.2-.86C9.16,3.456,9.159,2.3,9.146,1.144c0-.076,0-.154,0-.252M9.993,1c-.024.027-.031.031-.031.034.011,1.22.005,2.44.046,3.658.02.617.343.875.961.881l3.383.038h.212L9.993,1" transform="translate(0.003 0.003)" fill="#005a9a"/>
      <path id="Path_2358" data-name="Path 2358" d="M7.9,20H2.086A2.013,2.013,0,0,1,0,17.924Q0,15.1,0,12.285V7.75Q0,4.913,0,2.078a1.981,1.981,0,0,1,1.473-2A2.05,2.05,0,0,1,2.021,0c2.845,0,5.469,0,8.021,0a.541.541,0,0,1,.352.144c1.7,1.681,3.386,3.363,5.018,5a.566.566,0,0,1,.156.369c.005,3.983.005,8.163,0,12.422A2,2,0,0,1,13.491,20H7.9M5.667.17c-1.181,0-2.392,0-3.646,0a1.934,1.934,0,0,0-.5.07A1.817,1.817,0,0,0,.172,2.078q0,2.837,0,5.672v4.535q0,2.819,0,5.639A1.829,1.829,0,0,0,2.086,19.83h11.4A1.838,1.838,0,0,0,15.4,17.941c0-4.261,0-8.44,0-12.422a.4.4,0,0,0-.106-.248c-1.632-1.636-3.321-3.319-5.018-5a.373.373,0,0,0-.233-.095C8.614.172,7.165.17,5.667.17m1.7,19.021H2.138A1.205,1.205,0,0,1,.81,17.871V2.129A1.205,1.205,0,0,1,2.138.808h7.1v.338l.009.925c.006.833.015,1.695.038,2.541a2.369,2.369,0,0,0,.19.828,1.32,1.32,0,0,0,1.285.86c.873.015,1.759.024,2.617.032l1.042.011c.05,0,.1,0,.157,0h.172l0,.082c0,.032,0,.062,0,.09,0,.058.006.109.006.161v11.19a1.205,1.205,0,0,1-1.324,1.324H7.371M4.851.979H2.138A1.041,1.041,0,0,0,.981,2.129V17.871a1.041,1.041,0,0,0,1.157,1.15h11.3a1.041,1.041,0,0,0,1.153-1.153V6.678c0-.048,0-.1-.006-.152V6.515h-.009c-.057,0-.109,0-.16,0L13.373,6.5c-.858-.008-1.746-.018-2.618-.032a1.5,1.5,0,0,1-1.439-.963,2.532,2.532,0,0,1-.2-.891c-.025-.848-.032-1.71-.039-2.545,0-.308-.005-.616-.008-.924,0-.051,0-.1,0-.161V.979H4.851Zm9.584,4.728h-.08l-3.383-.037c-.683-.007-1.026-.323-1.046-.964-.028-.87-.033-1.756-.038-2.612q0-.524-.007-1.047A.094.094,0,0,1,9.915.97l.019-.02.06-.065,4.777,4.82h-.337M10.051,1.186c0,.3.005.6.006.9.005.855.01,1.739.038,2.608.019.554.281.793.877.8l3.383.037h.006Zm0-.143Z" transform="translate(0 0)" fill="#005a9a"/>
      <path id="Path_2359" data-name="Path 2359" d="M7.485,13.546a1.563,1.563,0,0,1-1.339-.583,1.585,1.585,0,0,1-.22-.518.348.348,0,0,1,.243-.434.353.353,0,0,1,.455.208c.057.1.107.214.159.323.247.521,1.109.431,1.363.113a.457.457,0,0,0-.16-.715,3.982,3.982,0,0,0-.541-.18c-.275-.087-.56-.154-.825-.267a.961.961,0,0,1-.633-.943.986.986,0,0,1,.65-.958,2.049,2.049,0,0,1,1.65-.007.994.994,0,0,1,.6.625.437.437,0,0,1-.182.552c-.194.095-.371.017-.517-.229-.274-.459-.463-.559-.949-.474a.73.73,0,0,0-.289.119.331.331,0,0,0,.028.6,6.03,6.03,0,0,0,.758.258c.241.08.488.144.721.244a1.131,1.131,0,0,1,.165,1.941,2.033,2.033,0,0,1-1.134.324" transform="translate(0.231 0.367)" fill="#005a9a"/>
      <path id="Path_2360" data-name="Path 2360" d="M7.487,13.636h0a1.659,1.659,0,0,1-1.406-.619,1.669,1.669,0,0,1-.233-.548.453.453,0,0,1,.855-.288c.049.088.092.181.134.269l.027.058a.614.614,0,0,0,.5.317.862.862,0,0,0,.719-.22.373.373,0,0,0-.131-.585,2.162,2.162,0,0,0-.361-.125c-.057-.016-.114-.032-.17-.05-.084-.027-.172-.052-.259-.078a4.955,4.955,0,0,1-.574-.192A1.039,1.039,0,0,1,5.9,10.552a1.069,1.069,0,0,1,.7-1.035A2.134,2.134,0,0,1,8.324,9.51a1.076,1.076,0,0,1,.642.678.517.517,0,0,1-.225.654c-.136.068-.4.122-.628-.261-.26-.435-.412-.512-.86-.433a.643.643,0,0,0-.255.1.29.29,0,0,0-.142.251.256.256,0,0,0,.159.2,3.151,3.151,0,0,0,.5.179c.08.023.163.048.244.075l.217.069a5.217,5.217,0,0,1,.51.179,1.09,1.09,0,0,1,.686.92,1.292,1.292,0,0,1-.5,1.169,2.148,2.148,0,0,1-1.179.34ZM6.3,12.077A.336.336,0,0,0,6.2,12.1a.264.264,0,0,0-.187.331,1.5,1.5,0,0,0,.207.491,1.485,1.485,0,0,0,1.27.547,1.943,1.943,0,0,0,1.085-.309A1.132,1.132,0,0,0,9,12.145a.927.927,0,0,0-.582-.781,5.21,5.21,0,0,0-.492-.171c-.074-.023-.149-.046-.222-.071s-.159-.05-.238-.073a3.324,3.324,0,0,1-.53-.189.423.423,0,0,1-.255-.342.463.463,0,0,1,.214-.4.822.822,0,0,1,.323-.134c.52-.091.743.02,1.037.514.183.305.351.222.408.2a.359.359,0,0,0,.137-.45.91.91,0,0,0-.549-.572,1.97,1.97,0,0,0-1.584.007.9.9,0,0,0-.6.88.88.88,0,0,0,.582.864,4.881,4.881,0,0,0,.554.186c.088.026.176.051.263.079l.164.048a2.223,2.223,0,0,1,.39.136.552.552,0,0,1,.3.375.56.56,0,0,1-.115.47,1.026,1.026,0,0,1-.873.283.763.763,0,0,1-.635-.414l-.027-.058c-.042-.086-.083-.176-.13-.26-.069-.126-.148-.186-.247-.186" transform="translate(0.227 0.364)" fill="#005a9a"/>
      <path id="Path_2361" data-name="Path 2361" d="M4.084,13.544a1.813,1.813,0,0,1-1.962-1.709,2.159,2.159,0,0,1,.614-1.944A1.9,1.9,0,0,1,5.3,9.945a1.768,1.768,0,0,1,.328.6.353.353,0,0,1-.212.435.374.374,0,0,1-.458-.168c-.062-.094-.114-.2-.178-.289a.939.939,0,0,0-1.62.065,1.939,1.939,0,0,0-.028,1.78.859.859,0,0,0,.85.492.888.888,0,0,0,.846-.5c.052-.1.092-.207.138-.31a.324.324,0,0,1,.42-.193.346.346,0,0,1,.268.384,1.321,1.321,0,0,1-.506.925,1.685,1.685,0,0,1-1.067.378" transform="translate(0.082 0.367)" fill="#005a9a"/>
      <path id="Path_2362" data-name="Path 2362" d="M4.084,13.632a1.891,1.891,0,0,1-2.043-1.786,2.219,2.219,0,0,1,.641-2.015,1.989,1.989,0,0,1,2.687.057,1.857,1.857,0,0,1,.346.632.439.439,0,0,1-.262.545.459.459,0,0,1-.56-.2c-.03-.047-.058-.095-.086-.141s-.058-.1-.09-.147a.887.887,0,0,0-.78-.394.824.824,0,0,0-.693.451,1.865,1.865,0,0,0-.027,1.7.771.771,0,0,0,.773.443.807.807,0,0,0,.77-.458c.033-.064.061-.131.091-.2.015-.034.029-.07.045-.1a.407.407,0,0,1,.521-.24.431.431,0,0,1,.33.474,1.4,1.4,0,0,1-.536.982,1.769,1.769,0,0,1-1.121.4H4.084ZM4,9.505A1.778,1.778,0,0,0,2.8,9.956a2.063,2.063,0,0,0-.588,1.872,1.732,1.732,0,0,0,1.873,1.633h0A1.6,1.6,0,0,0,5.1,13.1a1.223,1.223,0,0,0,.476-.865.261.261,0,0,0-.206-.3.239.239,0,0,0-.319.145c-.016.033-.029.068-.044.1-.03.071-.061.143-.1.213a.976.976,0,0,1-.922.551.939.939,0,0,1-.928-.542,2.029,2.029,0,0,1,.031-1.855,1.006,1.006,0,0,1,.834-.541,1.053,1.053,0,0,1,.93.468c.035.051.068.1.1.157s.053.09.081.133a.291.291,0,0,0,.356.136.268.268,0,0,0,.163-.326,1.7,1.7,0,0,0-.311-.575A1.7,1.7,0,0,0,4,9.505" transform="translate(0.079 0.364)" fill="#005a9a"/>
      <path id="Path_2363" data-name="Path 2363" d="M10.987,12.47l.825-2.446c.041-.121.079-.242.13-.358a.372.372,0,0,1,.469-.223.383.383,0,0,1,.271.482c-.137.416-.292.826-.444,1.237-.241.656-.483,1.312-.731,1.967a.575.575,0,0,1-.559.415.586.586,0,0,1-.564-.408c-.025-.058-.047-.117-.07-.178q-.38-1.033-.762-2.069c-.109-.3-.223-.6-.322-.9a.4.4,0,0,1,.126-.48.358.358,0,0,1,.435-.039.694.694,0,0,1,.228.315c.223.618.43,1.242.642,1.863.094.272.186.545.278.818l.048,0" transform="translate(0.359 0.367)" fill="#005a9a"/>
      <path id="Path_2364" data-name="Path 2364" d="M10.947,13.63a.664.664,0,0,1-.638-.459c-.026-.059-.048-.119-.071-.182l-.1-.263q-.332-.9-.664-1.806L9.4,10.709c-.083-.224-.169-.456-.245-.689a.476.476,0,0,1,.156-.574.44.44,0,0,1,.536-.041.789.789,0,0,1,.259.354c.165.461.325.933.48,1.389l.162.476.221.65.143-.423q.312-.927.625-1.854l.021-.062c.033-.1.068-.2.111-.3a.461.461,0,0,1,.574-.27.515.515,0,0,1,.3.249.441.441,0,0,1,.025.341c-.116.353-.247.708-.374,1.049l-.071.191c-.237.644-.483,1.311-.733,1.967a.656.656,0,0,1-.637.47ZM9.617,9.5a.363.363,0,0,0-.207.081.311.311,0,0,0-.1.384c.075.229.16.458.243.682.026.071.053.141.079.213q.33.9.664,1.806l.1.262c.023.062.044.118.068.175a.5.5,0,0,0,.481.355h0a.485.485,0,0,0,.479-.359c.249-.655.495-1.322.731-1.966l.071-.191c.126-.341.257-.693.372-1.043a.27.27,0,0,0-.015-.211.343.343,0,0,0-.2-.164.29.29,0,0,0-.365.177c-.041.092-.073.192-.1.289l-.022.063q-.313.926-.625,1.853l-.22.654-.169-.008-.3-.872c-.055-.159-.108-.317-.162-.476-.155-.456-.315-.927-.48-1.386a.609.609,0,0,0-.2-.274A.217.217,0,0,0,9.617,9.5" transform="translate(0.356 0.364)" fill="#005a9a"/>
    </g>
  </g>
</svg>
