<svg id="Group_4725" data-name="Group 4725" xmlns="http://www.w3.org/2000/svg" xmlns:xlink="http://www.w3.org/1999/xlink" width="18.214" height="18.234" viewBox="0 0 18.214 18.234">
  <defs>
    <clipPath id="clip-path">
      <rect id="Rectangle_1859" data-name="Rectangle 1859" width="18.213" height="18.234" fill="#fff"/>
    </clipPath>
  </defs>
  <g id="Group_4724" data-name="Group 4724" clip-path="url(#clip-path)">
    <path id="Path_2726" data-name="Path 2726" d="M45.86,19.877l-.174-.459a1.6,1.6,0,0,1,.471-.16c1.564-.013,3.128-.008,4.692-.009h.544c0-.5-.012-.976,0-1.446a12.16,12.16,0,0,1,.1-1.6,1.373,1.373,0,0,1,1.364-1.246c.8-.058,1.606-.044,2.41-.061.175,0,.349,0,.577,0v-.531q0-4.981,0-9.963c0-.119,0-.238-.005-.357-.063-1.02-.466-1.415-1.493-1.417q-4.915-.008-9.831,0c-1.405,0-1.757.357-1.757,1.781q0,4.646,0,9.292a1.4,1.4,0,0,1-.021.443c-.036.1-.182.257-.25.244a.54.54,0,0,1-.294-.256c-.047-.078-.016-.2-.016-.307q0-4.8.005-9.605a3.831,3.831,0,0,1,.088-.839,1.634,1.634,0,0,1,1.378-1.291c.114-.024.225-.06.338-.091H54.622c1.428.439,1.8.838,1.8,2.086q.019,5.511-.007,11.022a1.09,1.09,0,0,1-.3.692c-1.235,1.226-2.492,2.43-3.75,3.633a5.693,5.693,0,0,1-.6.444Zm6.184-.972,3.509-3.387c-.916,0-1.73-.03-2.541.01a.867.867,0,0,0-.955.869c-.054.808-.014,1.623-.014,2.508" transform="translate(-38.396 -1.821)" fill="#fff"/>
    <path id="Path_2727" data-name="Path 2727" d="M50,18.234H43.916l-.283-.745.172-.061c.043-.015.088-.035.136-.057a.988.988,0,0,1,.394-.113c1.225-.01,2.47-.01,3.674-.009h1.384q0-.142,0-.281c0-.342-.005-.664.006-.992,0-.1.006-.2.008-.3a9.5,9.5,0,0,1,.094-1.32,1.556,1.556,0,0,1,1.527-1.395c.571-.042,1.152-.047,1.714-.052.235,0,.47,0,.706-.009.118,0,.236,0,.37,0h.032V2.522c0-.1,0-.193-.005-.286C53.784,1.3,53.452.988,52.527.987c-2.65,0-5.345,0-7.951,0H42.7c-1.312,0-1.578.27-1.579,1.6q0,2.552,0,5.1v4.188c0,.036,0,.073,0,.11a1.042,1.042,0,0,1-.035.392c-.05.143-.255.4-.454.36a.721.721,0,0,1-.413-.34.524.524,0,0,1-.046-.322c0-.026,0-.053,0-.078V10.338c0-2.6,0-5.292.005-7.939a4.008,4.008,0,0,1,.092-.879A1.8,1.8,0,0,1,41.787.094c.072-.015.143-.036.219-.057l.109-.031L42.138,0h10.69l.026.008c1.526.469,1.922.933,1.927,2.256.013,3.761.011,7.47-.007,11.023a1.263,1.263,0,0,1-.356.818c-1.2,1.192-2.41,2.352-3.752,3.635a3.184,3.184,0,0,1-.43.328c-.064.043-.128.087-.19.132Zm-5.836-.358h5.72c.05-.036.1-.07.153-.1a2.884,2.884,0,0,0,.383-.29c1.341-1.283,2.549-2.441,3.747-3.631a.918.918,0,0,0,.25-.566c.017-3.552.02-7.26.007-11.02,0-1.146-.3-1.489-1.649-1.908H42.186L42.1.381c-.078.023-.16.046-.244.064A1.453,1.453,0,0,0,40.62,1.6a3.649,3.649,0,0,0-.083.8c-.005,2.646-.005,5.336-.005,7.938V12c0,.034,0,.07-.005.106a.5.5,0,0,0,0,.115.5.5,0,0,0,.137.151.359.359,0,0,0,.083-.11.766.766,0,0,0,.015-.259c0-.042,0-.084,0-.125V7.694q0-2.552,0-5.1c0-1.52.435-1.959,1.936-1.96h1.879c2.606,0,5.3,0,7.952,0,1.118,0,1.6.461,1.671,1.585.006.1.006.209.006.309V13.255h-.391c-.131,0-.246,0-.361,0-.236,0-.473.007-.71.009-.556.005-1.131.01-1.691.051a1.2,1.2,0,0,0-1.2,1.1,9.21,9.21,0,0,0-.089,1.27c0,.1-.005.2-.008.305-.01.321-.008.64-.005.978,0,.152,0,.305,0,.462v.179H48.009c-1.2,0-2.448,0-3.671.009a.7.7,0,0,0-.244.079Zm5.882-.373v-.421c0-.269,0-.531-.007-.788-.008-.6-.017-1.162.022-1.731a1.04,1.04,0,0,1,1.124-1.036c.566-.028,1.132-.022,1.732-.016.265,0,.537.006.818.006h.443Zm2.128-3.64c-.329,0-.651,0-.972.02-.512.025-.754.242-.785.7-.037.555-.029,1.112-.021,1.7q0,.186,0,.375l2.892-2.791-.381,0c-.252,0-.5-.005-.739-.005" transform="translate(-36.575)" fill="#fff"/>
    <path id="Path_2728" data-name="Path 2728" d="M7.39,140.946a9.261,9.261,0,0,0-1.048-.327,2.07,2.07,0,0,1-1.128-.653c-.88-.908-1.793-1.785-2.671-2.694a1.985,1.985,0,0,1-.491-.778A1.2,1.2,0,0,1,3.558,135a2.111,2.111,0,0,1,.815.51c.911.877,1.787,1.79,2.7,2.67a1.887,1.887,0,0,1,.605,1.055,6.439,6.439,0,0,0,.244.9.617.617,0,0,1-.259.8Zm-.664-2.115-2.38-2.386-.843.828,2.4,2.388.827-.83M3.89,135.913c-.371-.423-.8-.492-1.1-.182s-.242.722.189,1.081l.913-.9m3.434,4.344-.227-.831-.6.6.826.228" transform="translate(-1.823 -122.89)" fill="#fff"/>
    <path id="Path_2729" data-name="Path 2729" d="M5.887,139.3H5.539l-.027-.008c-.109-.035-.218-.073-.326-.112a4.953,4.953,0,0,0-.7-.21,2.227,2.227,0,0,1-1.222-.7c-.434-.448-.883-.9-1.318-1.329s-.908-.9-1.353-1.365a2.169,2.169,0,0,1-.534-.852,1.367,1.367,0,0,1,.352-1.368,1.373,1.373,0,0,1,1.377-.342,2.274,2.274,0,0,1,.889.552c.474.457.946.93,1.4,1.389.421.423.857.86,1.292,1.282a2.043,2.043,0,0,1,.657,1.152,6.261,6.261,0,0,0,.237.877.789.789,0,0,1-.333,1.01Zm-.292-.358H5.78a.437.437,0,0,0,.144-.568,6.674,6.674,0,0,1-.25-.928,1.709,1.709,0,0,0-.554-.958c-.438-.424-.874-.862-1.3-1.286-.455-.457-.926-.929-1.4-1.383a1.917,1.917,0,0,0-.742-.467A1.025,1.025,0,0,0,.4,134.62a1.8,1.8,0,0,0,.448.7c.443.459.9.917,1.348,1.36s.887.883,1.323,1.334a1.89,1.89,0,0,0,1.033.6,5.3,5.3,0,0,1,.752.224c.1.034.193.068.29.1m.161-.254-1.424-.393,1.033-1.039Zm-.739-.575.229.063-.063-.23Zm-.94-.024-2.651-2.642,1.1-1.079,2.631,2.638Zm-2.142-2.64,2.141,2.134.575-.577-2.129-2.134Zm-.772-.221-.124-.1a1.088,1.088,0,0,1-.446-.756.774.774,0,0,1,.244-.588.773.773,0,0,1,.58-.244,1.119,1.119,0,0,1,.784.434l.111.127Zm.231-1.335a.421.421,0,0,0-.3.139.422.422,0,0,0-.141.319.632.632,0,0,0,.2.389l.664-.653a.673.673,0,0,0-.408-.193H1.394" transform="translate(0 -121.065)" fill="#fff"/>
    <path id="Path_2730" data-name="Path 2730" d="M110.149,71.68c0,.818-.008,1.637,0,2.455.005.361-.135.517-.5.5-.416-.018-.833-.011-1.25,0-.272.005-.427-.1-.427-.385q0-2.588,0-5.177c0-.285.152-.391.425-.386.416.008.834.016,1.25,0,.366-.016.51.135.5.5-.013.833,0,1.666,0,2.5M108.6,74.025h.92V69.293h-.92Z" transform="translate(-98.323 -62.542)" fill="#fff"/>
    <path id="Path_2731" data-name="Path 2731" d="M107.879,72.993h-.056c-.421-.018-.855-.01-1.238,0a.61.61,0,0,1-.459-.148.557.557,0,0,1-.15-.415V67.249a.559.559,0,0,1,.15-.417.616.616,0,0,1,.457-.148c.461.009.844.015,1.238,0a.667.667,0,0,1,.52.154.682.682,0,0,1,.17.525c-.009.591-.007,1.193-.005,1.775q0,.361,0,.722t0,.707c0,.572,0,1.164.005,1.745a.685.685,0,0,1-.171.528.631.631,0,0,1-.462.155m-.619-.37c.191,0,.385,0,.578.011a.356.356,0,0,0,.253-.053.376.376,0,0,0,.062-.266c-.009-.584-.007-1.178-.005-1.751q0-.353,0-.706t0-.72c0-.584,0-1.187.005-1.782a.372.372,0,0,0-.062-.263.36.36,0,0,0-.256-.054c-.4.018-.794.012-1.261,0a.289.289,0,0,0-.2.045.244.244,0,0,0-.043.162v5.177a.241.241,0,0,0,.043.16.288.288,0,0,0,.2.046c.215,0,.446-.009.683-.009m.614-.241H106.6v-5.09h1.277Zm-.92-.358h.562V67.649h-.562Z" transform="translate(-96.503 -60.72)" fill="#fff"/>
    <path id="Path_2732" data-name="Path 2732" d="M75.963,92.482c0,.49-.01.981,0,1.471.01.352-.115.527-.491.51-.415-.018-.832-.012-1.248,0-.3.008-.442-.113-.441-.417q.005-1.582,0-3.165c0-.3.146-.428.439-.424.431.006.862.007,1.293,0,.325-.005.452.153.446.466-.009.52,0,1.04,0,1.56m-1.549,1.367h.911V91.064h-.911Z" transform="translate(-67.192 -82.37)" fill="#fff"/>
    <path id="Path_2733" data-name="Path 2733" d="M73.7,92.82h-.055c-.418-.018-.841-.012-1.236,0a.615.615,0,0,1-.468-.148.59.59,0,0,1-.156-.447c0-1.072,0-2.136,0-3.163a.546.546,0,0,1,.621-.6c.461.006.882.006,1.288,0a.616.616,0,0,1,.468.157.644.644,0,0,1,.16.491c-.006.365,0,.738,0,1.1q0,.229,0,.459c0,.148,0,.3,0,.445,0,.335,0,.682.005,1.021a.693.693,0,0,1-.167.539.618.618,0,0,1-.456.156m-.627-.37c.194,0,.391,0,.588.012a.362.362,0,0,0,.244-.053.386.386,0,0,0,.06-.274c-.01-.345-.007-.695-.005-1.033,0-.147,0-.3,0-.443s0-.3,0-.457c0-.362,0-.737,0-1.106a.352.352,0,0,0-.056-.232.287.287,0,0,0-.209-.052c-.409.006-.834.007-1.3,0a.31.31,0,0,0-.208.05.293.293,0,0,0-.05.194c0,1.028,0,2.093,0,3.166a.29.29,0,0,0,.048.191.319.319,0,0,0,.209.047c.217-.006.443-.01.673-.01m.608-.245H72.414V89.063h1.269Zm-.911-.358h.554V89.42h-.554Z" transform="translate(-65.37 -80.548)" fill="#fff"/>
    <path id="Path_2734" data-name="Path 2734" d="M142.884,97.779c0-.417.007-.834,0-1.251-.007-.33.114-.5.469-.49.431.015.864.007,1.3,0a.361.361,0,0,1,.414.407c0,.893,0,1.787,0,2.68,0,.3-.151.423-.447.416q-.647-.015-1.3,0c-.3.008-.438-.128-.436-.425,0-.447,0-.893,0-1.34m.631,1.154h.911V96.675h-.911Z" transform="translate(-130.11 -87.453)" fill="#fff"/>
    <path id="Path_2735" data-name="Path 2735" d="M141.474,97.9a.588.588,0,0,1-.434-.15.6.6,0,0,1-.157-.456c0-.325,0-.651,0-.976v-.363c0-.13,0-.26,0-.391,0-.281,0-.572,0-.856a.671.671,0,0,1,.164-.518.632.632,0,0,1,.489-.155c.371.013.751.008,1.119,0l.169,0a.606.606,0,0,1,.439.152.587.587,0,0,1,.156.434q0,.679,0,1.357,0,.661,0,1.323a.594.594,0,0,1-.157.444.615.615,0,0,1-.473.151c-.44-.01-.873-.01-1.287,0h-.029M141.5,94.4a.3.3,0,0,0-.2.052.361.361,0,0,0-.058.256c.007.289.005.582,0,.866,0,.13,0,.259,0,.389v.362c0,.327,0,.653,0,.979a.3.3,0,0,0,.05.2.31.31,0,0,0,.2.047c.42-.011.859-.011,1.3,0a.334.334,0,0,0,.214-.05.282.282,0,0,0,.05-.188q0-.662,0-1.324,0-.678,0-1.356a.271.271,0,0,0-.05-.18.28.28,0,0,0-.184-.048l-.168,0c-.372,0-.756.008-1.135,0H141.5m1.287,2.9h-1.269V94.675h1.269Zm-.911-.358h.554v-1.9h-.554Z" transform="translate(-128.288 -85.633)" fill="#fff"/>
  </g>
</svg>
