<svg xmlns="http://www.w3.org/2000/svg" xmlns:xlink="http://www.w3.org/1999/xlink" width="16.907" height="20" viewBox="0 0 16.907 20">
  <defs>
    <clipPath id="clip-path">
      <rect id="Rectangle_1804" data-name="Rectangle 1804" width="16.907" height="20" fill="#005a9a"/>
    </clipPath>
  </defs>
  <g id="Group_4445" data-name="Group 4445" transform="translate(0 0)">
    <g id="Group_4444" data-name="Group 4444" transform="translate(0 0)" clip-path="url(#clip-path)">
      <path id="Path_2409" data-name="Path 2409" d="M3.621,20.015a1.006,1.006,0,0,1-.749-.752,1.5,1.5,0,0,1-.023-.307c0-.514,0-1.028,0-1.568H2.183c-.335,0-.67,0-1,0a.953.953,0,0,1-.956-.94c0-.038,0-.077,0-.116q0-7.526,0-15.053A.965.965,0,0,1,.988.243,1.318,1.318,0,0,1,1.256.222h12a.957.957,0,0,1,1.036,1.035c0,.521,0,1.042,0,1.59h.216c.477,0,.954,0,1.43,0a.947.947,0,0,1,.978.975q0,5.71,0,11.42a2.209,2.209,0,0,1-.7,1.608c-.875.847-1.766,1.676-2.658,2.5a2.679,2.679,0,0,1-1.29.62.71.71,0,0,0-.1.039Zm8.528-.736v-.252c0-.721,0-1.443,0-2.164a1.3,1.3,0,0,1,1.386-1.376c.76,0,1.52,0,2.281,0,.382,0,.383,0,.383-.382q0-5.575,0-11.15c0-.345-.055-.4-.406-.4H3.966c-.347,0-.406.058-.406.4V18.9c0,.354.048.4.4.4h7.808c.115,0,.23-.01.378-.017M13.581,2.847V2.622q0-.638,0-1.276c0-.364-.045-.408-.415-.408H1.356c-.382,0-.415.034-.415.424V16.244c0,.032,0,.064,0,.1,0,.267.075.339.349.34.464,0,.928,0,1.392,0,.05,0,.1-.008.165-.014v-.257c0-4.155.008-8.31-.008-12.465a1.044,1.044,0,0,1,1.1-1.1c3.131.018,6.263.008,9.394.008Zm2.27,13.373a.875.875,0,0,0-.111-.022c-.754,0-1.508-.005-2.261,0a.6.6,0,0,0-.615.628c0,.677,0,1.353,0,2.029,0,.035.008.069.019.157l2.968-2.794" transform="translate(-0.118 -0.118)" fill="#005a9a"/>
      <path id="Path_2410" data-name="Path 2410" d="M12.068,20H3.487l-.016-.005a1.1,1.1,0,0,1-.818-.828,1.575,1.575,0,0,1-.026-.328c0-.38,0-.759,0-1.149v-.315h-.87c-.228,0-.464,0-.7,0A1.061,1.061,0,0,1,0,16.333c0-.031,0-.062,0-.093V13.2Q0,7.182,0,1.161A1.07,1.07,0,0,1,.849.024,1.4,1.4,0,0,1,1.139,0h12A1.058,1.058,0,0,1,14.28,1.138c0,.358,0,.716,0,1.083v.405h.546c.327,0,.665,0,1,0A1.049,1.049,0,0,1,16.9,3.7V4.831c0,3.374.005,6.863-.005,10.294a2.309,2.309,0,0,1-.728,1.682c-.893.864-1.832,1.737-2.659,2.506a2.745,2.745,0,0,1-1.338.645.278.278,0,0,0-.052.019l-.036.015Zm-8.547-.207h8.508l.012-.005a.5.5,0,0,1,.09-.031,2.548,2.548,0,0,0,1.241-.594c.827-.769,1.765-1.64,2.656-2.5a2.107,2.107,0,0,0,.665-1.535c.01-3.431.007-6.919.005-10.293V3.7a.84.84,0,0,0-.876-.871c-.332,0-.67,0-1,0h-.753V2.22c0-.366,0-.724,0-1.082a.858.858,0,0,0-.933-.932h-12A1.23,1.23,0,0,0,.892.226a.865.865,0,0,0-.685.935q0,6.021,0,12.042V16.24c0,.029,0,.057,0,.086a.847.847,0,0,0,.854.841c.231,0,.466,0,.694,0H2.833v.522c0,.389,0,.769,0,1.148a1.41,1.41,0,0,0,.022.285.892.892,0,0,0,.665.67m3.068-.511H3.845c-.411,0-.505-.094-.505-.5V3.84c0-.4.1-.506.509-.506H15.677c.409,0,.509.1.509.5q0,5.575,0,11.15c0,.441-.045.486-.486.486H15.01q-.8,0-1.591,0a1.2,1.2,0,0,0-1.283,1.273c0,.5,0,1.007,0,1.5q0,.333,0,.666v.351l-.1,0-.137.007c-.089.005-.166.01-.246.01H6.589M9.763,3.54H3.849c-.291,0-.3.011-.3.3V18.778c0,.3,0,.3.3.3h7.808c.073,0,.148,0,.234-.01l.042,0v-.154q0-.333,0-.665c0-.492,0-1,0-1.5a1.4,1.4,0,0,1,1.489-1.478q.8,0,1.591,0H15.7a.878.878,0,0,0,.262-.018.9.9,0,0,0,.018-.262q0-5.574,0-11.15c0-.287-.008-.3-.3-.3H9.763M12.688,19.11l-.025-.2c0-.033-.007-.058-.01-.078a.585.585,0,0,1-.009-.092v-.416c0-.529,0-1.076,0-1.613a.7.7,0,0,1,.717-.731c.557,0,1.123,0,1.67,0h.592a.291.291,0,0,1,.067.01l.064.014.2.04Zm1.576-2.929c-.3,0-.6,0-.9,0a.49.49,0,0,0-.513.525c0,.537,0,1.083,0,1.612v.353L15.5,16.183H14.264m-12.51.485H1.172c-.329,0-.448-.117-.452-.442,0-.024,0-.048,0-.071V1.244C.72.8.8.717,1.238.717h11.81c.426,0,.518.091.519.511q0,.444,0,.889v.715H10.755c-2.274,0-4.626,0-6.938-.01A.975.975,0,0,0,3.1,3.1a1,1,0,0,0-.276.729c.012,3.123.01,6.3.009,9.369q0,1.548,0,3.1v.351l-.094.008-.06.006a1.065,1.065,0,0,1-.115.008h-.81M13.048.924H1.238A.594.594,0,0,0,.961.959a.634.634,0,0,0-.035.286V16.152c0,.023,0,.046,0,.068,0,.213.028.237.246.238.454,0,.9,0,1.391,0a.605.605,0,0,0,.063,0V16.29q0-1.548,0-3.1c0-3.07,0-6.245-.009-9.368a1.214,1.214,0,0,1,.337-.877,1.187,1.187,0,0,1,.863-.332c2.312.014,4.663.012,6.937.01h2.6v-1.4c0-.3,0-.3-.312-.3" transform="translate(0 0)" fill="#005a9a"/>
      <path id="Path_2411" data-name="Path 2411" d="M16.551,13.7h-3.3a1.319,1.319,0,0,1-.192-.007.357.357,0,0,1,.013-.712,1.427,1.427,0,0,1,.173,0h6.606c.337,0,.514.123.516.358s-.176.364-.51.364h-3.3" transform="translate(-6.783 -6.912)" fill="#005a9a"/>
      <path id="Path_2412" data-name="Path 2412" d="M13.058,13.682a.91.91,0,0,1-.136-.008.46.46,0,0,1,.016-.916,1,1,0,0,1,.148-.005H19.73c.535,0,.618.288.62.46a.424.424,0,0,1-.118.31.678.678,0,0,1-.5.159H13.058m-.013-.723a.671.671,0,0,0-.083,0,.254.254,0,0,0-.01.506.909.909,0,0,0,.141.006h6.643a.5.5,0,0,0,.349-.1.216.216,0,0,0,.058-.163c0-.063,0-.256-.413-.256H13.045" transform="translate(-6.665 -6.794)" fill="#005a9a"/>
      <path id="Path_2413" data-name="Path 2413" d="M16.544,23.906q-1.7,0-3.4,0c-.275,0-.456-.185-.406-.414a.335.335,0,0,1,.316-.29c.064-.006.128,0,.193,0h6.605c.344,0,.513.119.51.358s-.169.352-.516.352h-3.3" transform="translate(-6.783 -12.358)" fill="#005a9a"/>
      <path id="Path_2414" data-name="Path 2414" d="M14.606,23.891H13.028a.539.539,0,0,1-.426-.183.416.416,0,0,1-.081-.356.437.437,0,0,1,.407-.371c.061-.006.121-.006.179-.006h6.628a.676.676,0,0,1,.5.155.412.412,0,0,1,.113.307c0,.207-.112.454-.619.454H14.606m-1.518-.71c-.049,0-.1,0-.142,0a.233.233,0,0,0-.225.208.212.212,0,0,0,.04.183.335.335,0,0,0,.266.107h6.7c.409,0,.411-.169.412-.25a.212.212,0,0,0-.054-.16.508.508,0,0,0-.353-.093H13.088Z" transform="translate(-6.665 -12.24)" fill="#005a9a"/>
      <path id="Path_2415" data-name="Path 2415" d="M16.553,18.8h-3.3a1.685,1.685,0,0,1-.212-.007.353.353,0,0,1-.308-.342.361.361,0,0,1,.315-.357,1.081,1.081,0,0,1,.135,0h6.74c.242,0,.372.078.423.254a.345.345,0,0,1-.277.447,1.336,1.336,0,0,1-.212.009h-3.3" transform="translate(-6.783 -9.638)" fill="#005a9a"/>
      <path id="Path_2416" data-name="Path 2416" d="M17.678,18.785H13.1a1.464,1.464,0,0,1-.2-.008.459.459,0,0,1-.4-.442.464.464,0,0,1,.406-.462.847.847,0,0,1,.118,0H19.8a.471.471,0,0,1,.522.328.461.461,0,0,1-.05.376.445.445,0,0,1-.31.2,1.292,1.292,0,0,1-.2.01H17.678m-1.242-.207H19.77a1.083,1.083,0,0,0,.164-.007.239.239,0,0,0,.168-.108.25.25,0,0,0,.026-.207c-.032-.108-.1-.18-.324-.18H13.031a.693.693,0,0,0-.09,0,.256.256,0,0,0-.225.253.252.252,0,0,0,.218.242,1.379,1.379,0,0,0,.167.007h3.334Z" transform="translate(-6.665 -9.52)" fill="#005a9a"/>
      <path id="Path_2417" data-name="Path 2417" d="M14.984,29.009H13.227a1.052,1.052,0,0,1-.192-.01.354.354,0,0,1,0-.7.887.887,0,0,1,.173-.011H16.8a.787.787,0,0,1,.209.023.351.351,0,0,1,0,.673.826.826,0,0,1-.228.025c-.6,0-1.2,0-1.8,0" transform="translate(-6.783 -15.07)" fill="#005a9a"/>
      <path id="Path_2418" data-name="Path 2418" d="M15.7,28.994H13.086a.955.955,0,0,1-.187-.012.457.457,0,0,1,0-.9.953.953,0,0,1,.191-.013h3.594a.879.879,0,0,1,.237.027.423.423,0,0,1,.327.422.43.43,0,0,1-.321.449.918.918,0,0,1-.258.029H15.7m-.833-.207h.416q.69,0,1.379,0a.728.728,0,0,0,.2-.021.222.222,0,0,0,.174-.246.219.219,0,0,0-.177-.228.694.694,0,0,0-.181-.02H13.087a.818.818,0,0,0-.153.009.251.251,0,0,0,0,.5.8.8,0,0,0,.15.008h1.781Z" transform="translate(-6.665 -14.953)" fill="#005a9a"/>
    </g>
  </g>
</svg>
