<svg xmlns="http://www.w3.org/2000/svg" xmlns:xlink="http://www.w3.org/1999/xlink" width="19" height="23.397" viewBox="0 0 19 23.397">
  <defs>
    <clipPath id="clip-path">
      <rect id="Rectangle_1797" data-name="Rectangle 1797" width="19" height="23.397" fill="#005a9a"/>
    </clipPath>
  </defs>
  <g id="Group_4426" data-name="Group 4426" transform="translate(0 0)">
    <g id="Group_4425" data-name="Group 4425" transform="translate(0 0)" clip-path="url(#clip-path)">
      <path id="Path_2372" data-name="Path 2372" d="M11.975,0c.12.1.247.2.36.313q.989.985,1.973,1.976a.7.7,0,0,1,0,1.116q-1.034,1.038-2.07,2.073a.7.7,0,0,1-1.035.056.694.694,0,0,1,.056-1.017c.312-.312.629-.619.943-.927-.034-.034-.044-.053-.054-.053-1.106.008-2.217-.048-3.316.037A7.668,7.668,0,0,0,2.6,7.407a7.859,7.859,0,0,0-.206,8.224.715.715,0,0,1-.2,1.035.682.682,0,0,1-.945-.276,8.714,8.714,0,0,1-1.16-3.347,9.414,9.414,0,0,1,3.976-9.17,8.852,8.852,0,0,1,5.2-1.709c.9-.021,1.8,0,2.7-.006h.219l.04-.065c-.284-.271-.572-.537-.852-.813C10.872.8,10.879.458,11.38,0Z" transform="translate(0 0)" fill="#005a9a"/>
      <path id="Path_2373" data-name="Path 2373" d="M8.774,22.776a24.8,24.8,0,0,0,4.287-.176,7.912,7.912,0,0,0,6.134-5.551,7.774,7.774,0,0,0-.606-6.327,1.374,1.374,0,0,1-.161-.4.658.658,0,0,1,.437-.742.677.677,0,0,1,.84.327,9.49,9.49,0,0,1-6.317,14.028,11.626,11.626,0,0,1-1.93.194c-.891.032-1.784.008-2.716.008a1.823,1.823,0,0,0,.12.153c.279.282.563.559.84.843a.688.688,0,1,1-.979.96Q7.66,25.039,6.6,23.974a.687.687,0,0,1,0-1.05q1.048-1.056,2.1-2.107a.706.706,0,0,1,1.036-.053.7.7,0,0,1-.062,1.019c-.31.312-.625.621-.937.93l.03.062" transform="translate(-1.964 -2.946)" fill="#005a9a"/>
      <path id="Path_2374" data-name="Path 2374" d="M13.2,18.187c0,.228,0,.433,0,.639a.7.7,0,0,1-.7.726.688.688,0,0,1-.677-.738c0-.2,0-.408,0-.635-.442,0-.86,0-1.277,0a.692.692,0,1,1,.006-1.373c.87,0,1.74,0,2.61,0a.687.687,0,1,0,0-1.371c-.221,0-.443,0-.664,0a7.042,7.042,0,0,1-.937-.023,2.035,2.035,0,0,1-1.789-2.156A2.062,2.062,0,0,1,11.7,11.313c.03,0,.059-.008.122-.015,0-.209,0-.42,0-.63a.685.685,0,0,1,.684-.73.7.7,0,0,1,.688.733c0,.2,0,.409,0,.64.459,0,.9,0,1.34,0a.686.686,0,0,1,.673.923.694.694,0,0,1-.679.448c-.87,0-1.74,0-2.609,0a.693.693,0,0,0-.782.677c0,.422.3.691.787.7A12.459,12.459,0,0,1,13.5,14.1a2.027,2.027,0,0,1,1.753,2.073,2.067,2.067,0,0,1-1.9,2l-.162.015" transform="translate(-3.015 -3.069)" fill="#005a9a"/>
    </g>
  </g>
</svg>
