<svg xmlns="http://www.w3.org/2000/svg" xmlns:xlink="http://www.w3.org/1999/xlink" width="17.077" height="20" viewBox="0 0 17.077 20">
  <defs>
    <clipPath id="clip-path">
      <rect id="Rectangle_1796" data-name="Rectangle 1796" width="17.077" height="20" fill="#005a9a"/>
    </clipPath>
  </defs>
  <g id="Group_4424" data-name="Group 4424" transform="translate(0 0)">
    <g id="Group_4423" data-name="Group 4423" transform="translate(0 0)" clip-path="url(#clip-path)">
      <path id="Path_2368" data-name="Path 2368" d="M13.706,0c.148.042.3.077.445.128a2.353,2.353,0,0,1,1.607,2.244c.013,1.907.006,3.814,0,5.722a.539.539,0,0,1-.539.573.548.548,0,0,1-.535-.6q0-2.822,0-5.643a1.277,1.277,0,0,0-1.049-1.314,1.64,1.64,0,0,0-.311-.02H2.452A1.28,1.28,0,0,0,1.086,2.459q0,7.527,0,15.055a1.292,1.292,0,0,0,1.4,1.412q2.919.006,5.839,0c.378,0,.755,0,1.132,0,.4,0,.652.214.646.543S9.851,20,9.465,20q-3.515,0-7.03,0A2.375,2.375,0,0,1,.008,17.58c-.006-1.744,0-3.489,0-5.233C.006,9.073.02,5.8,0,2.525A2.423,2.423,0,0,1,2.018.029C2.035.027,2.05.01,2.066,0Z" transform="translate(0 0)" fill="#005a9a"/>
      <path id="Path_2369" data-name="Path 2369" d="M22.555,25.891l1.61-1.531a.626.626,0,0,1,.665-.152.609.609,0,0,1,.421.509.594.594,0,0,1-.19.551q-1.383,1.319-2.775,2.628a.606.606,0,0,1-.889-.007q-1.3-1.223-2.594-2.46a.63.63,0,0,1-.041-.923.642.642,0,0,1,.925,0c.259.238.511.485.767.727l.815.769v-.272q0-2.687,0-5.374a.65.65,0,0,1,.623-.731.62.62,0,0,1,.641.515,1.825,1.825,0,0,1,.021.313q0,2.552,0,5.1v.331" transform="translate(-8.184 -8.646)" fill="#005a9a"/>
      <path id="Path_2370" data-name="Path 2370" d="M9.99,9.419H5.539a.543.543,0,0,1-.584-.546.536.536,0,0,1,.585-.522l8.883,0a.552.552,0,0,1,.6.359.534.534,0,0,1-.507.706c-.273.007-.547,0-.82,0H9.99" transform="translate(-2.183 -3.678)" fill="#005a9a"/>
      <path id="Path_2371" data-name="Path 2371" d="M8.1,15.789h2.4a.559.559,0,0,1,.558.318.526.526,0,0,1-.336.732.939.939,0,0,1-.25.029q-2.381,0-4.762,0a.565.565,0,0,1-.627-.437.54.54,0,0,1,.577-.641c.585-.006,1.171,0,1.756,0H8.1" transform="translate(-2.235 -6.954)" fill="#005a9a"/>
    </g>
  </g>
</svg>
