<svg xmlns="http://www.w3.org/2000/svg" width="24.452" height="33.4" viewBox="0 0 24.452 33.4">
  <g id="Group_4462" data-name="Group 4462" transform="translate(0 0)">
    <g id="Group_4478" data-name="Group 4478" transform="translate(0 0)">
      <path id="Path_2057" data-name="Path 2057" d="M16.009,6.222c0,1.7.007,3.4-.006,5.093,0,.321.094.412.415.41,2.267-.013,4.534-.007,6.8,0,.713,0,1.183.332,1.231.96a1.487,1.487,0,0,1-.258.865q-3.063,4.619-6.16,9.217Q14.664,27.786,11.3,32.811a1.084,1.084,0,0,1-1.133.573,1,1,0,0,1-.889-1.036c-.007-1.3-.005-2.6-.006-3.907q0-3.925-.006-7.849c0-.553,0-.553-.537-.553q-3.732,0-7.464,0a1.124,1.124,0,0,1-1.244-.928,1.11,1.11,0,0,1,.29-.93q2.351-3.03,4.7-6.063Q9.488,6.349,13.965.575A1.125,1.125,0,0,1,15.15.028a1.023,1.023,0,0,1,.863,1.1c.006,1.7,0,3.395,0,5.093Z" transform="translate(0 0)" fill="#005a9a"/>
    </g>
  </g>
</svg>
