<svg xmlns="http://www.w3.org/2000/svg" xmlns:xlink="http://www.w3.org/1999/xlink" width="18.234" height="18.234" viewBox="0 0 18.234 18.234"><defs><clipPath id="a"><rect width="18.234" height="18.234" transform="translate(0 0)" fill="#004989"/></clipPath></defs><g transform="translate(0 0)" clip-path="url(#a)"><path d="M12.181,18.234H1.714c-.015-.009-.029-.023-.045-.025A1.99,1.99,0,0,1,0,16.174C.012,11.457,0,6.74.006,2.024A1.955,1.955,0,0,1,2.027,0Q5.861,0,9.7,0a.733.733,0,0,1,.553.231q1.7,1.709,3.41,3.411a.75.75,0,0,1,.233.571c-.005,1.62,0,3.239,0,4.859v.214h2.5c-.056-.06-.094-.1-.135-.144q-.515-.516-1.032-1.032a.542.542,0,0,1-.178-.53.533.533,0,0,1,.921-.236q.969.957,1.925,1.926c.127.128.23.28.344.42v.285a2.269,2.269,0,0,1-.2.282q-1.015,1.023-2.037,2.039a.538.538,0,1,1-.758-.753c.347-.349.7-.7,1.043-1.045.034-.034.063-.074.1-.117H13.89v.227q0,2.811,0,5.623a1.957,1.957,0,0,1-1.37,1.913c-.112.035-.226.062-.339.093M9.262,1.071H2.052a.9.9,0,0,0-.978.987V16.174a.9.9,0,0,0,.992.992h9.771a.9.9,0,0,0,.986-.981q0-2.812,0-5.625v-.2H12.6q-1.691,0-3.381,0a.548.548,0,0,1-.541-.3A.531.531,0,0,1,9.195,9.3c1.145,0,2.29,0,3.435,0h.183V4.632H9.87a.545.545,0,0,1-.608-.6c0-.415,0-.831,0-1.246V1.071M12,3.556l-1.66-1.663V3.556Z" transform="translate(0 0)" fill="#004989"/><path d="M9.592,18.232c-1,0-1.992,0-2.987,0a.535.535,0,1,1,.006-1.068q1.556,0,3.112,0c.955,0,1.909,0,2.863,0a.532.532,0,0,1,.52.742.542.542,0,0,1-.543.326c-.99,0-1.98,0-2.97,0" transform="translate(-3.889 -11.072)" fill="#004989"/><path d="M9.592,36.293c-1,0-1.992,0-2.987,0a.535.535,0,1,1,.009-1.068q1.7,0,3.4,0c.859,0,1.719,0,2.578,0a.53.53,0,0,1,.51.759.541.541,0,0,1-.536.308q-1.485,0-2.97,0" transform="translate(-3.891 -22.723)" fill="#004989"/><path d="M8.884,24.252H6.644a.539.539,0,1,1,0-1.068q2.249,0,4.5,0a.535.535,0,1,1,.013,1.068H8.884" transform="translate(-3.893 -14.956)" fill="#004989"/><path d="M8.9,29.2h2.222a.538.538,0,1,1,.006,1.068h-4.5A.537.537,0,1,1,6.626,29.2H8.9" transform="translate(-3.893 -18.84)" fill="#004989"/></g></svg>