<svg xmlns="http://www.w3.org/2000/svg" width="28.488" height="17.866" viewBox="0 0 28.488 17.866">
  <g id="Group_4743" data-name="Group 4743" transform="translate(-24.17 -2383.149)">
    <path id="Path_834" data-name="Path 834" d="M24.17,2391.856c2.544-4.2,6.042-7.19,10.9-8.3a14.952,14.952,0,0,1,12.807,2.867,18.714,18.714,0,0,1,4.558,4.983,1.115,1.115,0,0,1,0,1.339,17.249,17.249,0,0,1-9.329,7.493,14.964,14.964,0,0,1-13.785-2.255,18.168,18.168,0,0,1-4.892-5.23c-.092-.147-.173-.3-.259-.454Zm14.136,7.352a13.3,13.3,0,0,0,5.121-.981,16.453,16.453,0,0,0,7.2-5.974.265.265,0,0,0-.016-.363,16.987,16.987,0,0,0-4.944-4.791,13.043,13.043,0,0,0-11.7-1.364,15.873,15.873,0,0,0-7.752,6.171.267.267,0,0,0,.015.364,17.862,17.862,0,0,0,3.344,3.635A13.7,13.7,0,0,0,38.306,2399.208Z" fill="#1411d4"/>
    <path id="Path_835" data-name="Path 835" d="M143.94,2436.655a5.346,5.346,0,1,1,5.333,5.359A5.354,5.354,0,0,1,143.94,2436.655Zm5.358,3.577a3.564,3.564,0,1,0-3.576-3.544A3.573,3.573,0,0,0,149.3,2440.231Z" transform="translate(-110.86 -44.589)" fill="#1411d4"/>
  </g>
</svg>
