<svg xmlns="http://www.w3.org/2000/svg" xmlns:xlink="http://www.w3.org/1999/xlink" width="19" height="19.01" viewBox="0 0 19 19.01">
  <defs>
    <clipPath id="clip-path">
      <rect id="Rectangle_1799" data-name="Rectangle 1799" width="19" height="19.01" fill="#005a9a"/>
    </clipPath>
  </defs>
  <g id="Group_4430" data-name="Group 4430" transform="translate(0 0)">
    <g id="Group_4429" data-name="Group 4429" transform="translate(0 0)" clip-path="url(#clip-path)">
      <path id="Path_2389" data-name="Path 2389" d="M18.892,18.225H.088v-.616h.935v-5.8c0-.4.084-.482.487-.482q1.405,0,2.81,0c.363,0,.459.1.459.455v5.8h.626V7.47c0-.461.067-.527.535-.527H8.716c.362,0,.453.092.453.459V17.588H9.8V17.36q0-3.39,0-6.78c0-.426.078-.507.5-.507h2.793c.373,0,.468.1.468.468v7.045h.626V6.177c0-.4.08-.485.48-.485h2.812c.38,0,.465.084.465.462V17.6h.949ZM17.306,6.331h-2.48v11.26h2.48ZM8.524,7.585H6.044V17.591h2.48Zm1.911,10h2.487V10.713H10.435Zm-8.777,0H4.143V11.969H1.658Z" transform="translate(0.011 0.687)" fill="#005a9a"/>
      <path id="Path_2390" data-name="Path 2390" d="M19,18.334H0v-.812H.936v-5.7c0-.456.126-.58.585-.58H4.332c.416,0,.557.14.557.554v5.7h.429V7.481c0-.513.112-.624.633-.624H8.726c.417,0,.551.136.551.557V17.5H9.71V10.591c0-.48.123-.6.6-.6H13.1c.429,0,.566.138.566.566V17.5H14.1V6.188c0-.458.124-.584.578-.584h2.812c.431,0,.564.131.564.56V17.513H19Zm-18.8-.2H18.8V17.71h-.948V6.164c0-.323-.041-.363-.368-.363q-1.405,0-2.812,0c-.346,0-.382.036-.382.387V17.7h-.823V10.553c0-.318-.052-.37-.37-.37H10.31c-.37,0-.4.035-.4.408V17.7H9.081V15.145q0-3.866,0-7.731c0-.314-.046-.361-.354-.361H5.952c-.412,0-.437.024-.437.428V17.693H4.692v-5.9c0-.307-.05-.356-.361-.357H1.521c-.349,0-.389.039-.389.384v5.9H.2ZM8.633,17.7H5.957V7.5H8.633Zm-2.48-.2H8.437V7.694H6.153Zm11.262.195H14.739V6.243h2.676Zm-2.48-.2h2.284V6.44H14.936ZM13.03,17.7H10.347v-7.07H13.03Zm-2.487-.2h2.291V10.823H10.544Zm-6.291.194H1.571V11.882H4.253Zm-2.486-.2H4.057V12.078H1.767Z" transform="translate(0 0.676)" fill="#005a9a"/>
      <path id="Path_2391" data-name="Path 2391" d="M16.148.087A1.694,1.694,0,0,1,17.2.734a1.5,1.5,0,0,1,.086,1.71,1.454,1.454,0,0,1-1.436.769,2.418,2.418,0,0,1-.645-.178c-.1-.036-.157-.049-.238.032q-1,1.012-2.013,2.014a.166.166,0,0,0-.035.235,1.561,1.561,0,1,1-2.786,1.407,1.414,1.414,0,0,1-.1-1.053.224.224,0,0,0-.093-.289c-.574-.429-1.139-.87-1.681-1.286a6.077,6.077,0,0,1-.708.326,1.389,1.389,0,0,1-1.133-.129.16.16,0,0,0-.233.031q-1,1.012-2.014,2.014a.165.165,0,0,0-.034.233A1.488,1.488,0,0,1,4.03,8.215a1.474,1.474,0,0,1-1.6.613A1.469,1.469,0,0,1,1.244,7.641a1.473,1.473,0,0,1,.6-1.588,1.477,1.477,0,0,1,1.627-.137.21.21,0,0,0,.295-.043q.972-.988,1.961-1.961a.2.2,0,0,0,.04-.292,1.542,1.542,0,0,1,.266-1.784,1.562,1.562,0,0,1,2.691,1.1c-.006.162-.066.322-.086.485a.236.236,0,0,0,.041.185c.573.45,1.151.892,1.711,1.322a5.422,5.422,0,0,1,.634-.349,1.439,1.439,0,0,1,1.242.083.185.185,0,0,0,.266-.038q.987-1,1.985-1.989c.069-.068.113-.118.055-.231a1.554,1.554,0,0,1,1.113-2.3.3.3,0,0,0,.065-.028h.4M15,1.665a.931.931,0,0,0,.932.935.943.943,0,0,0,.944-.928.953.953,0,0,0-.946-.948.941.941,0,0,0-.93.941m-7.84.314a.939.939,0,1,0,.939.936.949.949,0,0,0-.939-.936m5.322,4.066a.93.93,0,0,0-.936-.928.933.933,0,1,0,.01,1.866.926.926,0,0,0,.926-.938M3.7,7.3a.931.931,0,0,0-.933-.93.934.934,0,1,0,.007,1.868A.929.929,0,0,0,3.7,7.3" transform="translate(0.145 0.011)" fill="#005a9a"/>
      <path id="Path_2392" data-name="Path 2392" d="M2.826,8.979a1.968,1.968,0,0,1-.4-.045A1.577,1.577,0,0,1,1.158,7.673a1.581,1.581,0,0,1,.633-1.688,1.577,1.577,0,0,1,1.728-.147c.094.047.117.044.182-.022.619-.629,1.279-1.289,1.962-1.962.068-.067.071-.086.024-.177a1.633,1.633,0,0,1,.279-1.895A1.676,1.676,0,0,1,7.813,1.4,1.655,1.655,0,0,1,8.826,2.955a1.484,1.484,0,0,1-.048.3,1.828,1.828,0,0,0-.038.193.213.213,0,0,0,.009.1c.462.362.93.722,1.383,1.07l.271.208.145-.087a2.9,2.9,0,0,1,.447-.236,1.545,1.545,0,0,1,1.322.089c.076.041.091.039.149-.02.628-.635,1.271-1.276,1.893-1.9l.093-.092c.063-.063.064-.065.037-.117A1.689,1.689,0,0,1,14.445.941,1.692,1.692,0,0,1,15.67.029.055.055,0,0,0,15.689.02l.026-.012L15.734,0h.437l.011,0A1.769,1.769,0,0,1,17.29.689,1.6,1.6,0,0,1,17.381,2.5a1.552,1.552,0,0,1-1.527.818,2.243,2.243,0,0,1-.613-.162l-.059-.021c-.089-.032-.1-.03-.134.009-.631.639-1.29,1.3-2.014,2.015-.046.045-.049.055-.016.119a1.653,1.653,0,0,1-.745,2.284,1.592,1.592,0,0,1-1.234.078,1.69,1.69,0,0,1-.983-.865,1.5,1.5,0,0,1-.1-1.125A.131.131,0,0,0,9.9,5.471c-.426-.319-.848-.645-1.257-.96l-.377-.29c-.058.028-.115.057-.17.085a3.214,3.214,0,0,1-.5.22,1.493,1.493,0,0,1-1.211-.138c-.061-.034-.067-.032-.115.016C5.6,5.079,4.922,5.757,4.255,6.417c-.046.045-.049.053-.016.12a1.589,1.589,0,0,1-.119,1.747,1.552,1.552,0,0,1-1.294.7M2.754,5.843a1.4,1.4,0,0,0-.845.3A1.376,1.376,0,0,0,1.349,7.63,1.372,1.372,0,0,0,2.464,8.742a1.379,1.379,0,0,0,1.5-.574,1.387,1.387,0,0,0,.1-1.542.262.262,0,0,1,.052-.349c.667-.66,1.344-1.338,2.013-2.013a.257.257,0,0,1,.352-.048,1.285,1.285,0,0,0,1.056.121A3.056,3.056,0,0,0,8,4.131c.074-.037.151-.076.231-.114l.054-.026.047.037.425.327c.409.315.83.641,1.255.958a.322.322,0,0,1,.129.4,1.31,1.31,0,0,0,.091.982,1.49,1.49,0,0,0,.868.765,1.4,1.4,0,0,0,1.084-.067,1.5,1.5,0,0,0,.766-.873,1.473,1.473,0,0,0-.109-1.144.264.264,0,0,1,.053-.351c.723-.716,1.381-1.375,2.013-2.013a.279.279,0,0,1,.341-.056l.061.022a2.113,2.113,0,0,0,.557.15A1.35,1.35,0,0,0,17.211,2.4,1.4,1.4,0,0,0,17.129.8a1.563,1.563,0,0,0-.983-.6h-.37a.257.257,0,0,1-.069.027,1.49,1.49,0,0,0-1.085.8,1.492,1.492,0,0,0,.04,1.348.26.26,0,0,1-.072.346l-.093.092c-.622.62-1.264,1.261-1.892,1.9a.281.281,0,0,1-.382.056,1.335,1.335,0,0,0-1.159-.078,2.669,2.669,0,0,0-.416.221c-.066.04-.134.082-.206.122l-.056.031-.375-.287c-.455-.35-.926-.71-1.388-1.075a.323.323,0,0,1-.078-.276,2.1,2.1,0,0,1,.041-.213,1.348,1.348,0,0,0,.044-.262A1.463,1.463,0,0,0,6.111,1.914,1.443,1.443,0,0,0,5.86,3.586a.3.3,0,0,1-.059.408c-.682.672-1.342,1.332-1.96,1.96a.3.3,0,0,1-.408.061,1.531,1.531,0,0,0-.679-.171m.019,2.5A1.038,1.038,0,0,1,1.738,7.328a1.014,1.014,0,0,1,.3-.732A1.033,1.033,0,0,1,3.81,7.31,1.024,1.024,0,0,1,2.786,8.346H2.773m.006-1.868a.841.841,0,0,0-.6.255.822.822,0,0,0-.24.591.843.843,0,0,0,.849.826.836.836,0,0,0-.006-1.672Zm8.767.613a1.028,1.028,0,0,1-.733-1.75,1.036,1.036,0,0,1,.741-.312,1.031,1.031,0,0,1,.012,2.062h-.02m.008-1.866a.838.838,0,0,0-.6.253.838.838,0,1,0,.6-.253ZM7.163,3.966H7.154a1.037,1.037,0,0,1,.012-2.074h0A1.051,1.051,0,0,1,8.2,2.925a1.046,1.046,0,0,1-1.04,1.041m0-1.878h0a.841.841,0,1,0,.591,1.433.829.829,0,0,0,.25-.6.852.852,0,0,0-.838-.838Zm8.774.621h0a1.023,1.023,0,0,1-1.029-1.033A1.041,1.041,0,0,1,15.935.637h.009a1.036,1.036,0,1,1,0,2.072m0-1.876h-.007a.844.844,0,0,0-.833.843.829.829,0,0,0,.834.837h0a.846.846,0,0,0,.843-.831.837.837,0,0,0-.248-.6.846.846,0,0,0-.592-.252" transform="translate(0.134 0)" fill="#005a9a"/>
    </g>
  </g>
</svg>
