<svg xmlns="http://www.w3.org/2000/svg" xmlns:xlink="http://www.w3.org/1999/xlink" width="16.88" height="16.881" viewBox="0 0 16.88 16.881">
  <defs>
    <clipPath id="clip-path">
      <rect id="Rectangle_1801" data-name="Rectangle 1801" width="16.88" height="16.881" fill="#005a9a"/>
    </clipPath>
  </defs>
  <g id="Group_4439" data-name="Group 4439" transform="translate(0 0)">
    <g id="Group_4438" data-name="Group 4438" transform="translate(0 0)" clip-path="url(#clip-path)">
      <path id="Path_2401" data-name="Path 2401" d="M3.9,7.792c-.628,0-1.257,0-1.885,0A1.946,1.946,0,0,1,0,5.787Q0,3.891,0,2A1.941,1.941,0,0,1,1.986,0Q3.893,0,5.8,0A1.94,1.94,0,0,1,7.79,1.987Q7.8,3.892,7.79,5.8a1.944,1.944,0,0,1-2,1.992c-.628,0-1.258,0-1.886,0M1.3,3.9c0,.636,0,1.271,0,1.907a.648.648,0,0,0,.685.689q1.907,0,3.812,0a.648.648,0,0,0,.694-.7q0-1.9,0-3.793a.649.649,0,0,0-.7-.7Q3.9,1.3,2,1.3a.649.649,0,0,0-.7.709c0,.628,0,1.258,0,1.886" transform="translate(0 0)" fill="#005a9a"/>
      <path id="Path_2402" data-name="Path 2402" d="M20.7,3.918c0,.621,0,1.244,0,1.865a1.944,1.944,0,0,1-2.009,2.008q-1.885,0-3.772,0a1.945,1.945,0,0,1-2.008-2.009q0-1.885,0-3.772A1.944,1.944,0,0,1,14.923,0q1.885,0,3.771,0A1.944,1.944,0,0,1,20.7,2.012c0,.635,0,1.27,0,1.906m-6.491-.032c0,.636,0,1.271,0,1.907a.651.651,0,0,0,.694.7q1.9,0,3.793,0a.651.651,0,0,0,.705-.709q0-1.887,0-3.772A.653.653,0,0,0,18.7,1.3q-1.885,0-3.772,0a.653.653,0,0,0-.715.719c0,.622,0,1.244,0,1.866" transform="translate(-3.825 0)" fill="#005a9a"/>
      <path id="Path_2403" data-name="Path 2403" d="M7.791,16.813c0,.628,0,1.257,0,1.885A1.944,1.944,0,0,1,5.779,20.7q-1.887,0-3.772,0A1.945,1.945,0,0,1,0,18.691q0-1.885,0-3.772a1.945,1.945,0,0,1,2.012-2q1.885,0,3.772,0a1.944,1.944,0,0,1,2,2.011c0,.629,0,1.258,0,1.886M1.3,16.789c0,.643,0,1.284,0,1.927a.648.648,0,0,0,.685.689q1.906,0,3.812,0a.648.648,0,0,0,.694-.7q0-1.9,0-3.792a.65.65,0,0,0-.7-.7q-1.9,0-3.792,0a.65.65,0,0,0-.7.71c0,.622,0,1.244,0,1.866" transform="translate(0 -3.825)" fill="#005a9a"/>
      <path id="Path_2404" data-name="Path 2404" d="M16.814,12.917a3.894,3.894,0,1,1-3.9,3.931,3.9,3.9,0,0,1,3.9-3.931m2.593,3.888a2.6,2.6,0,1,0-2.587,2.6,2.6,2.6,0,0,0,2.587-2.6" transform="translate(-3.826 -3.826)" fill="#005a9a"/>
    </g>
  </g>
</svg>
