<svg xmlns="http://www.w3.org/2000/svg" xmlns:xlink="http://www.w3.org/1999/xlink" width="19" height="18.038" viewBox="0 0 19 18.038">
  <defs>
    <clipPath id="clip-path">
      <rect id="Rectangle_1800" data-name="Rectangle 1800" width="19" height="18.038" fill="#005a9a"/>
    </clipPath>
  </defs>
  <g id="Group_4432" data-name="Group 4432" transform="translate(0 0)">
    <g id="Group_4431" data-name="Group 4431" transform="translate(0 0)" clip-path="url(#clip-path)">
      <path id="Path_2393" data-name="Path 2393" d="M36.387,19.979a.4.4,0,0,1-.422.231c-.153-.011-.308,0-.461-.006a.317.317,0,0,1,0-.634,2.447,2.447,0,0,1,.571.008c.114.022.211.14.315.214Z" transform="translate(-17.387 -9.661)" fill="#005a9a"/>
      <path id="Path_2394" data-name="Path 2394" d="M36.387,5.669a.433.433,0,0,1-.446.224c-.14-.012-.283,0-.424,0a.318.318,0,0,1-.319-.315.305.305,0,0,1,.308-.322,2.551,2.551,0,0,1,.57.007c.112.019.208.123.312.189Z" transform="translate(-17.387 -2.588)" fill="#005a9a"/>
      <path id="Path_2395" data-name="Path 2395" d="M36.387,15.214a.406.406,0,0,1-.424.228c-.147-.012-.3,0-.444,0a.318.318,0,1,1,0-.636c.148-.006.3.006.443,0a.4.4,0,0,1,.422.231Z" transform="translate(-17.387 -7.308)" fill="#005a9a"/>
      <path id="Path_2396" data-name="Path 2396" d="M36.387,29.563a.472.472,0,0,1-.458.2c-.141-.012-.283,0-.424-.007a.309.309,0,0,1-.308-.323.316.316,0,0,1,.319-.315c.178-.008.356,0,.535,0a.4.4,0,0,1,.335.221Z" transform="translate(-17.387 -14.383)" fill="#005a9a"/>
      <path id="Path_2397" data-name="Path 2397" d="M36.386,10.445a.422.422,0,0,1-.445.226c-.122-.011-.246,0-.369,0-.233,0-.372-.122-.375-.317s.133-.319.365-.324c.136,0,.272.007.407,0a.385.385,0,0,1,.418.234Z" transform="translate(-17.386 -4.951)" fill="#005a9a"/>
      <path id="Path_2398" data-name="Path 2398" d="M36.386,24.748a.385.385,0,0,1-.418.234c-.153-.01-.308,0-.462-.005a.307.307,0,0,1-.31-.321.311.311,0,0,1,.3-.313,2.448,2.448,0,0,1,.571.007c.115.023.212.139.317.213Z" transform="translate(-17.386 -12.018)" fill="#005a9a"/>
      <path id="Path_2399" data-name="Path 2399" d="M9.346,15.14v.222q0,1.132,0,2.263c0,.3-.113.411-.417.411H.413c-.3,0-.413-.108-.413-.412V.409C0,.109.111,0,.417,0H11.826c.305,0,.418.109.418.41q0,7.16,0,14.321c0,.3-.115.409-.421.409H9.346M.656,2.885H2.884V.65H.656Zm-.005,14.5H2.884V15.153H.651Zm0-2.9H2.885V12.254H.652Zm0-8.7H2.889V3.554H.653ZM3.558,2.885H5.782V.653H3.558ZM8.681.653H6.458V2.888H8.681Zm2.9,0H9.36V2.881h2.225ZM.653,11.577H2.888V9.356H.653Zm5.129.68H3.556v2.226H5.782ZM3.56,5.781H5.786V3.554H3.56Zm2.9,0H8.682V3.56H6.457Zm5.124,0a.557.557,0,0,0,.013-.083c0-.673,0-1.347,0-2.02,0-.123-.057-.141-.159-.14-.655,0-1.31,0-1.964,0a.807.807,0,0,0-.119.02V5.785Zm-2.9,6.469H6.46v2.224H8.685Zm.668,2.231h2.23V12.255H9.354Zm-8.7-5.8H2.885V6.453H.653Zm2.9,8.7H5.783V15.154H3.556Zm2.9,0H8.682v-2.23H6.455ZM5.786,6.459H3.556V8.68h2.23Zm.672,2.216H8.681V6.456H6.458Zm-.677.681H3.562v2.228H5.781Zm2.9,0H6.463v2.22H8.685Zm2.9,0H9.356v2.218h2.232Zm-.005-2.9H9.358V8.682h2.224Z" transform="translate(0 0)" fill="#005a9a"/>
      <path id="Path_2400" data-name="Path 2400" d="M30.642,10.439v7.105c0,.366-.094.459-.46.459H27.528c-.321,0-.43-.1-.431-.415q0-7.152,0-14.3c0-.317.108-.422.425-.422q1.354,0,2.708,0c.3,0,.411.109.411.415q0,3.58,0,7.161M27.757,3.505V5.264H30c0-.561,0-1.109-.006-1.658,0-.034-.085-.094-.132-.1-.216-.011-.432-.005-.648-.005H27.757m-.007,4.173h2.233V5.934H27.751Zm0,7.248h2.233V13.183H27.755ZM30,15.6H27.756v1.76c.72,0,1.429,0,2.138-.005.035,0,.1-.071.1-.11C30,16.7,30,16.159,30,15.6M27.756,12.51h2.233V10.771H27.756Zm2.23-4.155H27.76V10.1h2.226Z" transform="translate(-13.386 -1.413)" fill="#005a9a"/>
    </g>
  </g>
</svg>
