<svg xmlns="http://www.w3.org/2000/svg" width="90.201" height="14.082" viewBox="0 0 90.201 14.082">
  <path id="Path_2" data-name="Path 2" d="M0,0,1.888,1.549,3.776,0,5.664,1.549,7.552.775l1.888.775h1.888l1.888,2.908L15.1,2.95l1.888,1.507L18.879.775l1.888,2.841,1.888-1.387,1.888,2.229,1.888-2.229,1.888,3.744,1.888-2.357,1.888,1.877,1.888-2.506L35.87,4.457l1.888-1.471,1.888,2.506,1.888-1.036,1.888,2.518L45.31,5.493,47.2,8.017l1.888-1.041,1.888,1.041,1.888-3.2,1.888,1.87,1.888-1.87,1.888,1.15,1.888-1.15L62.3,6.686l1.888-.72L66.077,7.52l1.888-1.554L69.853,7.52l1.888-.834,1.888,2.69h1.888L77.4,11.309l1.888-.786,1.888.546,1.888-1.693,1.888,1.693,1.888-1.693,1.888,2.862" transform="translate(89.567 12.788) rotate(180)" fill="none" stroke="#005a9a" stroke-width="2"/>
</svg>
