<svg xmlns="http://www.w3.org/2000/svg" xmlns:xlink="http://www.w3.org/1999/xlink" width="25.904" height="25.907" viewBox="0 0 25.904 25.907">
  <defs>
    <clipPath id="clip-path">
      <rect id="Rectangle_1791" data-name="Rectangle 1791" width="25.904" height="25.907" fill="#005a9a"/>
    </clipPath>
  </defs>
  <g id="Group_4414" data-name="Group 4414" transform="translate(0 0)">
    <g id="Group_4413" data-name="Group 4413" transform="translate(0 0)" clip-path="url(#clip-path)">
      <path id="Path_2344" data-name="Path 2344" d="M15.176,25.907c.144-.04.288-.077.431-.12a2.7,2.7,0,0,0,1.949-2.5c.031-1.9.019-3.794.012-5.69a.909.909,0,0,0-.922-.938.923.923,0,0,0-.915.974c0,1.771,0,3.541,0,5.312,0,.77-.341,1.114-1.109,1.114H2.962c-.773,0-1.108-.335-1.108-1.109q0-9.991,0-19.982c0-.775.334-1.11,1.107-1.11H14.62c.768,0,1.109.344,1.109,1.113,0,1.771,0,3.541,0,5.312a.917.917,0,0,0,1.187.931.891.891,0,0,0,.643-.793c.016-.193.012-.387.012-.581,0-1.652.005-3.3,0-4.957a2.753,2.753,0,0,0-2.136-2.8A3.192,3.192,0,0,0,14.711,0Q8.793,0,2.875,0A2.76,2.76,0,0,0,.04,2.338.452.452,0,0,1,0,2.429V23.478a1.248,1.248,0,0,1,.047.141A2.748,2.748,0,0,0,1.97,25.786c.149.051.305.081.458.121Z" transform="translate(0 0)" fill="#005a9a"/>
      <path id="Path_2345" data-name="Path 2345" d="M31.96,24.535a1.132,1.132,0,0,0-.239.142c-.915.909-1.825,1.825-2.74,2.734a.959.959,0,0,0-.312.981.916.916,0,0,0,1.459.477,2.618,2.618,0,0,0,.221-.207L34.712,24.3a.963.963,0,0,0,.005-1.57q-2.191-2.191-4.387-4.378A1.373,1.373,0,0,0,29.761,18a.865.865,0,0,0-.986.442.9.9,0,0,0,.148,1.1c.378.4.772.778,1.159,1.166l1.881,1.881h-.349q-7.386,0-14.772,0a1.811,1.811,0,0,0-.523.055.9.9,0,0,0-.62.983.915.915,0,0,0,.853.794c.109.007.219.006.329.006h15l.083.1" transform="translate(-9.215 -10.556)" fill="#005a9a"/>
    </g>
  </g>
</svg>
