<svg xmlns="http://www.w3.org/2000/svg" xmlns:xlink="http://www.w3.org/1999/xlink" width="25.52" height="21.26" viewBox="0 0 25.52 21.26">
  <defs>
    <clipPath id="clip-path">
      <rect id="Rectangle_1774" data-name="Rectangle 1774" width="25.52" height="21.26" fill="#005a9a"/>
    </clipPath>
  </defs>
  <g id="Group_4374" data-name="Group 4374" transform="translate(0 0)">
    <g id="Group_4373" data-name="Group 4373" transform="translate(0 0)" clip-path="url(#clip-path)">
      <path id="Path_2315" data-name="Path 2315" d="M12.756,4.249q-5.244,0-10.489,0A2.123,2.123,0,0,1,1.913.019C2.033.007,2.153,0,2.273,0Q12.762,0,23.25,0a2.123,2.123,0,0,1,2.209,1.635,2.1,2.1,0,0,1-1.965,2.6c-1.55.027-3.1.01-4.649.011H12.756" transform="translate(-0.003 0)" fill="#005a9a"/>
      <path id="Path_2316" data-name="Path 2316" d="M12.761,23.01q5.272,0,10.544,0a2.119,2.119,0,0,1,.267,4.229c-.129.01-.258.014-.387.014q-10.421,0-20.84,0a2.169,2.169,0,0,1-2.061-1.09,2.11,2.11,0,0,1,1.877-3.155c2.537-.011,5.074,0,7.611,0h2.989" transform="translate(0 -5.999)" fill="#005a9a"/>
      <path id="Path_2317" data-name="Path 2317" d="M8.54,11.5c2.121,0,4.243-.012,6.364.006a2,2,0,0,1,1.944,1.306,2.022,2.022,0,0,1-.424,2.28,2.121,2.121,0,0,1-1.64.665q-2.726,0-5.451,0-3.542,0-7.083,0a2.128,2.128,0,1,1-.1-4.252c2.131-.008,4.26,0,6.391,0" transform="translate(-0.003 -2.998)" fill="#005a9a"/>
    </g>
  </g>
</svg>
