<svg id="Group_4402" data-name="Group 4402" xmlns="http://www.w3.org/2000/svg" xmlns:xlink="http://www.w3.org/1999/xlink" width="12.81" height="22.392" viewBox="0 0 12.81 22.392">
  <defs>
    <clipPath id="clip-path">
      <rect id="Rectangle_1786" data-name="Rectangle 1786" width="12.81" height="22.392" fill="#005a9a"/>
    </clipPath>
  </defs>
  <g id="Group_4401" data-name="Group 4401" transform="translate(0 0)" clip-path="url(#clip-path)">
    <path id="Path_2340" data-name="Path 2340" d="M5.617,16.012H3.5c-.617,0-1.234,0-1.851,0A1.586,1.586,0,0,1,0,14.352a20.39,20.39,0,0,1,.1-2.569A5.973,5.973,0,0,1,2.613,7.675,1.2,1.2,0,0,0,3.2,6.505c-.028-.288-.005-.581-.005-.866a5.955,5.955,0,0,1-.765-.168A2.28,2.28,0,0,1,.819,3.415,5.56,5.56,0,0,1,.9,1.778,2.275,2.275,0,0,1,3.1.016C5.3,0,7.5-.007,9.7.017a2.346,2.346,0,0,1,2.285,2.224,6.151,6.151,0,0,1-.067,1.517A2.386,2.386,0,0,1,9.612,5.616c0,.453-.022.91.008,1.364.019.3.259.465.488.63a6.2,6.2,0,0,1,2.509,3.732,8.9,8.9,0,0,1,.178,1.484c.029.507.009,1.017.006,1.526a1.6,1.6,0,0,1-1.654,1.659c-1.218,0-2.436,0-3.653,0H7.181v.3q0,2.589,0,5.179a.829.829,0,0,1-.525.853.786.786,0,0,1-1.037-.8c-.007-.659,0-1.318,0-1.976V16.012m5.623-1.6a23.472,23.472,0,0,0-.117-2.416A4.56,4.56,0,0,0,9.1,8.845,2.424,2.424,0,0,1,8,6.722c0-.325,0-.65,0-.975A1.6,1.6,0,0,1,9.631,4.01a.8.8,0,0,0,.773-.795c.008-.267.006-.534,0-.8A.793.793,0,0,0,9.6,1.6Q6.4,1.6,3.2,1.6a.789.789,0,0,0-.8.812c-.005.233,0,.467,0,.7a.81.81,0,0,0,.851.9A1.6,1.6,0,0,1,4.792,5.6c.007.317-.01.634,0,.95a2.593,2.593,0,0,1-1.22,2.392,4.357,4.357,0,0,0-1.823,2.69,10.789,10.789,0,0,0-.159,1.709c-.022.354,0,.71,0,1.072Z" transform="translate(0 0)" fill="#005a9a"/>
  </g>
</svg>
