<svg xmlns="http://www.w3.org/2000/svg" xmlns:xlink="http://www.w3.org/1999/xlink" width="26.915" height="26.907" viewBox="0 0 26.915 26.907">
  <defs>
    <clipPath id="clip-path">
      <rect id="Rectangle_1792" data-name="Rectangle 1792" width="26.915" height="26.907" transform="translate(0 0)" fill="#005a9a"/>
    </clipPath>
  </defs>
  <g id="Group_4416" data-name="Group 4416" transform="translate(0 0)">
    <g id="Group_4415" data-name="Group 4415" transform="translate(0 0)" clip-path="url(#clip-path)">
      <path id="Path_2346" data-name="Path 2346" d="M0,12.248a1.148,1.148,0,0,0,.052-.142,2.471,2.471,0,0,1,2.406-1.966c.575-.011.571-.013.787-.554.123-.308.247-.618.4-.912a.278.278,0,0,0-.065-.4,2.623,2.623,0,0,1-.909-1.5,2.374,2.374,0,0,1,.579-2.122c.43-.472.884-.924,1.352-1.359a2.406,2.406,0,0,1,3.388.023c.347.347.6.44,1.026.172a4.2,4.2,0,0,1,.922-.369.245.245,0,0,0,.2-.275,4.539,4.539,0,0,1,.051-.862A2.434,2.434,0,0,1,12.527.013a16.429,16.429,0,0,1,2.2.05,2.337,2.337,0,0,1,2.021,2.3c-.007.525.119.8.651.925a7.156,7.156,0,0,1,1.131.478,5.079,5.079,0,0,1,.448-.515,2.438,2.438,0,0,1,3.279,0c.46.418.9.862,1.324,1.313a2.463,2.463,0,0,1-.022,3.479c-.386.4-.381.4-.166.9.142.329.279.661.395,1a.239.239,0,0,0,.281.195,2.686,2.686,0,0,1,1.617.341A2.4,2.4,0,0,1,26.9,12.565a14.581,14.581,0,0,1-.049,2.148,2.4,2.4,0,0,1-2.364,2.058c-.207.006-.461-.048-.607.052s-.154.356-.231.54c-.125.3-.243.6-.392.887a.262.262,0,0,0,.063.378,2.636,2.636,0,0,1,.92,1.519,2.375,2.375,0,0,1-.574,2.1c-.422.467-.872.911-1.33,1.343a2.46,2.46,0,0,1-3.459-.017c-.416-.395-.414-.389-.945-.159-.32.139-.647.267-.976.382a.237.237,0,0,0-.189.259,4.481,4.481,0,0,1-.088,1.014,2.409,2.409,0,0,1-1.849,1.781c-.057.015-.111.038-.167.057H12.244c-.081-.027-.16-.058-.242-.08a2.462,2.462,0,0,1-1.531-1.152,2.69,2.69,0,0,1-.332-1.592.25.25,0,0,0-.207-.3c-.324-.1-.637-.242-.952-.371-.177-.072-.367-.241-.519-.21s-.3.248-.444.384a2.456,2.456,0,0,1-3.419.023c-.468-.435-.922-.886-1.351-1.359a2.367,2.367,0,0,1-.575-2.121,2.536,2.536,0,0,1,.776-1.369c.3-.294.294-.3.124-.666-.12-.262-.232-.528-.338-.8-.2-.518-.2-.519-.75-.528A2.467,2.467,0,0,1,.049,14.78.685.685,0,0,0,0,14.665V12.248M13.46,1.582c-.271,0-.543,0-.814,0a.888.888,0,0,0-.932.921c-.006.368,0,.736,0,1.1a.785.785,0,0,1-.62.807,10.07,10.07,0,0,0-2.344.97A.777.777,0,0,1,7.7,5.235c-.251-.245-.493-.5-.745-.741a.89.89,0,0,0-1.33,0q-.573.561-1.133,1.133a.889.889,0,0,0,0,1.33c.244.252.5.494.742.745a.784.784,0,0,1,.138,1.07,9.965,9.965,0,0,0-.952,2.3.8.8,0,0,1-.865.648c-.359,0-.718,0-1.077,0a.882.882,0,0,0-.9.9c-.007.552-.006,1.1,0,1.655a.889.889,0,0,0,.933.92c.359,0,.718,0,1.077,0a.787.787,0,0,1,.824.632,10.022,10.022,0,0,0,.96,2.32.783.783,0,0,1-.15,1.068c-.245.251-.5.493-.742.745a.885.885,0,0,0,0,1.311q.568.584,1.152,1.152a.887.887,0,0,0,1.312,0c.247-.236.484-.483.726-.723a.8.8,0,0,1,1.11-.16,10.03,10.03,0,0,0,2.271.942.805.805,0,0,1,.662.881c0,.35,0,.7,0,1.051a.887.887,0,0,0,.917.909c.543.006,1.086.005,1.629,0a.888.888,0,0,0,.933-.92c.006-.359,0-.718,0-1.077a.794.794,0,0,1,.646-.84,9.956,9.956,0,0,0,2.3-.951.788.788,0,0,1,1.089.153c.25.245.492.5.745.741a.884.884,0,0,0,1.292,0q.595-.575,1.171-1.17a.883.883,0,0,0,0-1.292c-.247-.26-.508-.507-.758-.764a.781.781,0,0,1-.138-1.069,9.987,9.987,0,0,0,.945-2.27.809.809,0,0,1,.9-.673c.341,0,.683,0,1.025,0a.888.888,0,0,0,.922-.931q.008-.8,0-1.6a.891.891,0,0,0-.934-.945c-.359,0-.718,0-1.077,0a.791.791,0,0,1-.824-.634,10.077,10.077,0,0,0-.96-2.32.781.781,0,0,1,.152-1.067c.245-.25.5-.491.741-.745a.887.887,0,0,0,0-1.312q-.568-.583-1.152-1.152a.886.886,0,0,0-1.311,0c-.246.237-.483.483-.726.723a.8.8,0,0,1-1.11.158,9.834,9.834,0,0,0-2.271-.942.8.8,0,0,1-.66-.856c0-.359,0-.718,0-1.077a.888.888,0,0,0-.918-.908c-.271,0-.543,0-.814,0" transform="translate(0 0)" fill="#005a9a"/>
      <path id="Path_2347" data-name="Path 2347" d="M27.893,33.753a5.849,5.849,0,1,1,5.85-5.841,5.846,5.846,0,0,1-5.85,5.841M32.167,27.9A4.273,4.273,0,1,0,27.9,32.177,4.266,4.266,0,0,0,32.167,27.9" transform="translate(-14.441 -14.448)" fill="#005a9a"/>
    </g>
  </g>
</svg>
