<svg xmlns="http://www.w3.org/2000/svg" xmlns:xlink="http://www.w3.org/1999/xlink" width="19.883" height="16.468" viewBox="0 0 19.883 16.468">
  <defs>
    <clipPath id="clip-path">
      <rect id="Rectangle_1798" data-name="Rectangle 1798" width="19.883" height="16.468" fill="#005a9a"/>
    </clipPath>
  </defs>
  <g id="Group_4428" data-name="Group 4428" transform="translate(0 0)">
    <g id="Group_4427" data-name="Group 4427" transform="translate(0 0)" clip-path="url(#clip-path)">
      <path id="Path_2375" data-name="Path 2375" d="M9.948,16.394H1.341a1.115,1.115,0,0,1-1.259-1.27V3.853q0-1.291,0-2.584A1.094,1.094,0,0,1,1.266.081H18.616a1.093,1.093,0,0,1,1.191,1.182q0,6.976,0,13.952a1.094,1.094,0,0,1-1.194,1.179H9.948M.707,3.755C.7,3.825.7,3.882.7,3.94V15.209c0,.4.173.567.59.567H18.6c.43,0,.594-.166.594-.6V3.755ZM.7,3.109H19.191V1.324c0-.473-.153-.625-.629-.625H1.327c-.052,0-.1,0-.155,0A.454.454,0,0,0,.7,1.149c-.01.647,0,1.3,0,1.961" transform="translate(-0.003 -0.004)" fill="#005a9a"/>
      <path id="Path_2376" data-name="Path 2376" d="M14.749,16.468H1.338A1.19,1.19,0,0,1,0,15.121V3.07q0-.9,0-1.8A1.175,1.175,0,0,1,1.263,0H18.612a1.173,1.173,0,0,1,1.269,1.259q0,6.977,0,13.952a1.173,1.173,0,0,1-1.272,1.257h-3.86m-4.8-.155h8.665a1.019,1.019,0,0,0,1.116-1.1q0-6.976,0-13.952a1.019,1.019,0,0,0-1.114-1.1H1.263A1.02,1.02,0,0,0,.156,1.267q0,.9,0,1.8V15.121a1.043,1.043,0,0,0,1.182,1.192Zm-.006-.462H1.284c-.461,0-.666-.2-.666-.645q0-5.634,0-11.269c0-.039,0-.079,0-.123,0-.02,0-.042,0-.065l0-.075H19.265v11.5c0,.476-.2.68-.672.68H9.938M.776,3.83c0,.037,0,.072,0,.106V15.205c0,.357.139.489.511.489H18.593c.386,0,.516-.132.516-.524V3.83Zm18.489-.645H.619V3.106c0-.191,0-.382,0-.572,0-.478,0-.929,0-1.389A.53.53,0,0,1,1.164.619c.038,0,.077,0,.115,0H18.558c.522,0,.707.184.708.7V3.185ZM.775,3.028H19.109V1.32c0-.429-.119-.547-.551-.547H1.278c-.035,0-.071,0-.106,0a.376.376,0,0,0-.394.372c-.007.46-.006.911,0,1.387,0,.164,0,.328,0,.494" transform="translate(0 0)" fill="#005a9a"/>
      <path id="Path_2377" data-name="Path 2377" d="M10.269,9.841c-.172.548-.348,1.1-.516,1.645-.051.167-.123.309-.318.314s-.284-.14-.338-.313c-.27-.865-.544-1.727-.813-2.592-.086-.275.06-.489.308-.461a.322.322,0,0,1,.276.263q.243.778.49,1.554c.016.054.036.105.07.2l.317-1c.079-.253.16-.506.236-.759a.312.312,0,0,1,.314-.264c.178,0,.261.112.31.269.154.5.312,1,.469,1.5.023.072.051.143.09.252.184-.583.354-1.125.526-1.667a.937.937,0,0,1,.075-.2.284.284,0,0,1,.366-.138.278.278,0,0,1,.2.319,1.855,1.855,0,0,1-.088.317c-.251.8-.5,1.607-.759,2.405a.538.538,0,0,1-.226.285c-.169.09-.335-.022-.405-.241-.162-.506-.319-1.012-.478-1.518-.018-.059-.041-.118-.062-.177l-.041,0" transform="translate(-0.351 -0.359)" fill="#005a9a"/>
      <path id="Path_2378" data-name="Path 2378" d="M11.134,11.881a.294.294,0,0,1-.113-.023.465.465,0,0,1-.249-.3c-.105-.328-.208-.659-.311-.989-.056-.176-.11-.352-.166-.529l-.006-.015c-.032.1-.062.2-.094.3-.124.389-.25.791-.371,1.187a.4.4,0,0,1-.805,0q-.2-.648-.406-1.294t-.407-1.3a.465.465,0,0,1,.059-.439A.362.362,0,0,1,8.6,8.354a.4.4,0,0,1,.34.317q.2.639.4,1.276l.08.255.03-.094c.075-.235.146-.457.215-.679.079-.248.16-.5.236-.758a.387.387,0,0,1,.389-.319.4.4,0,0,1,.384.324c.148.48.3.967.451,1.438l.019.06.011.033.061-.2c.135-.429.265-.841.4-1.252l.011-.035a.87.87,0,0,1,.07-.178.364.364,0,0,1,.459-.173.357.357,0,0,1,.25.4,1.382,1.382,0,0,1-.067.255c-.009.025-.017.051-.025.076q-.079.254-.159.51c-.193.621-.394,1.265-.6,1.895a.607.607,0,0,1-.263.33.328.328,0,0,1-.154.04m-.773-2.125.019.054.02.056q.023.06.043.124c.056.176.11.352.166.529.1.329.206.659.311.988a.319.319,0,0,0,.159.208.154.154,0,0,0,.135-.011.464.464,0,0,0,.19-.24c.206-.629.406-1.272.6-1.894.053-.17.106-.34.159-.51l.026-.078a1.26,1.26,0,0,0,.06-.226A.2.2,0,0,0,12.1,8.52a.207.207,0,0,0-.274.1.762.762,0,0,0-.056.147l-.011.036c-.13.412-.26.822-.4,1.252l-.2.637-.079-.218c-.013-.038-.025-.071-.036-.1-.021-.059-.038-.106-.054-.155l-.019-.06c-.148-.472-.3-.959-.451-1.439-.047-.151-.115-.213-.236-.214h0c-.122,0-.191.06-.236.209-.078.254-.159.511-.237.759-.07.222-.141.444-.215.68l-.172.538-.077-.219-.031-.087c-.016-.046-.029-.081-.04-.116l-.088-.277c-.134-.426-.269-.851-.4-1.278-.042-.136-.1-.2-.21-.209a.209.209,0,0,0-.194.068.309.309,0,0,0-.031.293q.2.649.407,1.3c.135.432.271.863.405,1.294.061.194.13.262.262.259s.188-.072.245-.259c.122-.4.249-.8.372-1.188l.144-.457.017-.053Z" transform="translate(-0.348 -0.355)" fill="#005a9a"/>
      <path id="Path_2379" data-name="Path 2379" d="M5.93,10.45c.184-.586.354-1.128.526-1.67A1.052,1.052,0,0,1,6.521,8.6a.288.288,0,0,1,.377-.15.275.275,0,0,1,.191.338,4.447,4.447,0,0,1-.125.427q-.353,1.129-.708,2.258c-.008.025-.019.048-.026.073a.3.3,0,0,1-.3.255.315.315,0,0,1-.316-.263c-.157-.506-.318-1.011-.477-1.517-.019-.061-.039-.123-.076-.236-.037.1-.062.165-.081.227-.158.5-.316,1-.469,1.5-.05.162-.13.29-.314.293s-.271-.114-.323-.28c-.273-.876-.552-1.75-.825-2.626-.086-.276.062-.489.31-.461.169.019.236.139.281.282.174.561.351,1.122.542,1.733.04-.109.068-.175.089-.244.157-.5.315-1,.469-1.5.051-.164.135-.281.324-.276s.258.118.306.274c.163.524.329,1.047.5,1.571.013.042.031.083.063.174" transform="translate(-0.129 -0.359)" fill="#005a9a"/>
      <path id="Path_2380" data-name="Path 2380" d="M4.188,11.875A.41.41,0,0,1,3.8,11.54c-.141-.454-.284-.907-.427-1.36q-.2-.633-.4-1.267a.459.459,0,0,1,.06-.438.366.366,0,0,1,.334-.123.41.41,0,0,1,.346.336L4.1,9.929l.087.276.009-.026.065-.206c.133-.423.271-.861.4-1.292a.4.4,0,0,1,.389-.331h.011a.4.4,0,0,1,.379.328c.127.411.259.829.388,1.232l.092.29.062-.2c.135-.428.263-.838.393-1.247l.011-.034a1,1,0,0,1,.06-.161.365.365,0,0,1,.472-.187.352.352,0,0,1,.242.427,3,3,0,0,1-.094.327l-.034.107Q6.7,10.3,6.367,11.365l-.039.125c0,.012-.009.025-.013.036a.344.344,0,0,0-.011.034.375.375,0,0,1-.374.313.388.388,0,0,1-.392-.318Q5.364,11,5.188,10.442l-.127-.4-.007-.019,0,.009-.086.275c-.126.4-.258.815-.382,1.224a.414.414,0,0,1-.387.349H4.188M3.314,8.506a.2.2,0,0,0-.162.07.308.308,0,0,0-.031.292q.2.633.4,1.266.215.679.428,1.361c.049.159.12.225.241.225h.006c.122,0,.189-.069.24-.238.125-.409.257-.823.383-1.225L4.9,9.981c.013-.041.029-.082.048-.134l.035-.095.079-.214.1.314c.019.057.032.1.045.14l.127.4q.175.557.349,1.114c.058.188.159.212.24.209a.224.224,0,0,0,.226-.2.352.352,0,0,1,.017-.051l.01-.026.039-.126q.335-1.066.667-2.13c.011-.036.023-.073.035-.109a3.2,3.2,0,0,0,.089-.311.2.2,0,0,0-.141-.249.212.212,0,0,0-.283.113.783.783,0,0,0-.049.134L6.526,8.8c-.128.41-.258.82-.393,1.248l-.2.642-.078-.216-.031-.082c-.014-.04-.025-.067-.034-.095l-.107-.338c-.128-.4-.26-.822-.389-1.234-.048-.155-.113-.216-.234-.219s-.2.059-.247.222c-.133.431-.271.869-.4,1.293l-.065.206c-.015.047-.032.091-.053.147-.011.03-.024.062-.037.1l-.079.216-.224-.713L3.563,8.737c-.048-.154-.106-.216-.215-.229l-.034,0" transform="translate(-0.125 -0.355)" fill="#005a9a"/>
      <path id="Path_2381" data-name="Path 2381" d="M15.521,9.781c-.191.6-.366,1.151-.533,1.7-.054.174-.128.32-.335.318s-.269-.145-.321-.31c-.267-.858-.538-1.715-.806-2.572-.074-.236-.024-.393.143-.464.185-.079.356.011.43.237.167.517.328,1.035.492,1.552.017.056.036.11.067.2.049-.141.087-.247.122-.354.145-.457.29-.912.429-1.369.05-.163.124-.287.313-.29s.276.128.327.3c.149.488.305.975.46,1.461.022.073.048.144.089.264.186-.589.356-1.128.527-1.666.011-.037.022-.075.035-.111a.309.309,0,1,1,.587.179c-.145.476-.3.949-.447,1.424-.128.407-.258.813-.382,1.221-.052.169-.135.3-.33.3s-.263-.131-.313-.293c-.162-.525-.328-1.048-.494-1.572-.011-.034-.026-.068-.058-.152" transform="translate(-0.574 -0.359)" fill="#005a9a"/>
      <path id="Path_2382" data-name="Path 2382" d="M14.655,11.873h-.006c-.249,0-.34-.186-.4-.365q-.244-.784-.49-1.567-.158-.5-.315-1c-.115-.368.067-.508.187-.559a.365.365,0,0,1,.3,0,.453.453,0,0,1,.232.289c.115.355.229.717.34,1.068.049.156.1.312.147.469.016-.047.032-.092.046-.136l.076-.241c.118-.37.238-.751.353-1.127a.4.4,0,0,1,.386-.346h.008c.255,0,.346.189.4.352.114.373.235.752.35,1.117l.108.343c0,.013.009.026.012.039l.464-1.47c.009-.029.017-.056.028-.085a.386.386,0,1,1,.734.228c-.1.328-.206.662-.307.983q-.07.22-.14.441l-.091.287c-.1.305-.2.621-.291.934a.4.4,0,0,1-.793,0c-.124-.405-.255-.817-.38-1.214l-.092-.29c-.031.095-.06.19-.09.282-.13.415-.254.805-.374,1.2a.429.429,0,0,1-.4.371M13.794,8.5a.248.248,0,0,0-.1.022c-.081.034-.18.11-.1.369q.157.5.315,1,.246.784.491,1.568c.058.187.123.254.248.256h0c.13,0,.194-.067.254-.262.121-.394.244-.785.375-1.2l.159-.5.067-.213.079.208.03.076c.014.035.023.058.031.081l.113.357c.125.4.256.809.381,1.215.052.169.12.236.24.238s.2-.065.254-.242c.1-.312.2-.628.292-.934l.09-.287.141-.441c.1-.322.207-.654.306-.982a.234.234,0,0,0-.134-.316.241.241,0,0,0-.3.188c-.01.025-.017.052-.026.078l-.009.03L16.4,10.7l-.077-.224-.038-.11c-.021-.06-.037-.108-.053-.156l-.108-.342c-.117-.367-.236-.746-.35-1.119-.056-.181-.123-.246-.252-.242s-.188.063-.24.235c-.115.377-.236.759-.353,1.129l-.076.241c-.023.072-.048.144-.077.225-.014.041-.03.084-.045.131l-.075.217-.1-.3c-.016-.047-.028-.083-.04-.12q-.076-.243-.153-.485c-.11-.349-.224-.711-.339-1.066a.305.305,0,0,0-.148-.2.191.191,0,0,0-.078-.016" transform="translate(-0.57 -0.355)" fill="#005a9a"/>
      <path id="Path_2383" data-name="Path 2383" d="M5.19,1.981a.451.451,0,0,1-.446.444A.46.46,0,0,1,4.3,1.979a.445.445,0,0,1,.46-.448.44.44,0,0,1,.435.45" transform="translate(-0.183 -0.065)" fill="#005a9a"/>
      <path id="Path_2384" data-name="Path 2384" d="M4.742,2.5h0a.536.536,0,0,1-.526-.523A.513.513,0,0,1,4.368,1.6a.523.523,0,0,1,.385-.153.518.518,0,0,1,.511.529.526.526,0,0,1-.523.521m0-.894a.374.374,0,0,0-.265.107.363.363,0,0,0-.107.262.383.383,0,0,0,.371.369h0a.371.371,0,0,0,.368-.367.363.363,0,0,0-.359-.371H4.743" transform="translate(-0.179 -0.062)" fill="#005a9a"/>
      <path id="Path_2385" data-name="Path 2385" d="M6.6,1.531a.448.448,0,0,1,.442.447.461.461,0,0,1-.447.447.446.446,0,0,1-.446-.461A.437.437,0,0,1,6.6,1.531" transform="translate(-0.262 -0.065)" fill="#005a9a"/>
      <path id="Path_2386" data-name="Path 2386" d="M6.592,2.5a.512.512,0,0,1-.369-.154.531.531,0,0,1-.152-.387.516.516,0,0,1,.522-.509H6.6a.527.527,0,0,1,.52.526A.538.538,0,0,1,6.6,2.5Zm0-.894a.357.357,0,0,0-.366.356.373.373,0,0,0,.107.275.36.36,0,0,0,.258.107h0a.384.384,0,0,0,.37-.37A.369.369,0,0,0,6.6,1.605H6.593" transform="translate(-0.258 -0.062)" fill="#005a9a"/>
      <path id="Path_2387" data-name="Path 2387" d="M2.892,1.531a.442.442,0,0,1,.449.438.447.447,0,1,1-.893,0,.442.442,0,0,1,.444-.441" transform="translate(-0.104 -0.065)" fill="#005a9a"/>
      <path id="Path_2388" data-name="Path 2388" d="M2.891,2.5H2.882a.529.529,0,0,1-.516-.529.519.519,0,0,1,.522-.52h0a.52.52,0,0,1,.525.514.535.535,0,0,1-.157.382.526.526,0,0,1-.368.153m0-.893a.364.364,0,0,0-.367.365.372.372,0,0,0,.363.373.362.362,0,0,0,.263-.109.373.373,0,0,0,.111-.268.365.365,0,0,0-.369-.361Z" transform="translate(-0.101 -0.062)" fill="#005a9a"/>
    </g>
  </g>
</svg>
