<svg id="trash_bin_delete" data-name="trash bin, delete" xmlns="http://www.w3.org/2000/svg" width="16.672" height="21.731" viewBox="0 0 16.672 21.731">
  <path id="Path_76" data-name="Path 76" d="M26.833,47.665H20.445c-1.667,0-3.019-1.621-3.021-3.62V34.314a4.373,4.373,0,0,1,.061-.721.782.782,0,0,1,.72-.708H29.072a.778.778,0,0,1,.718.7,4.163,4.163,0,0,1,.063.732v9.731c0,2-1.353,3.618-3.02,3.62Zm-7.94-13.019v9.4A1.728,1.728,0,0,0,20.445,45.9h6.388a1.728,1.728,0,0,0,1.551-1.858v-9.4Z" transform="translate(-15.303 -25.935)" fill="#fb8b70"/>
  <path id="Path_77" data-name="Path 77" d="M22.243,22.125H7.041a.818.818,0,0,1-.735-.881V17.53a.818.818,0,0,1,.735-.881h15.2a.818.818,0,0,1,.735.881v3.714A.818.818,0,0,1,22.243,22.125ZM7.776,20.363H21.508V18.412H7.776Z" transform="translate(-6.306 -13.412)" fill="#fb8b70"/>
  <path id="Path_78" data-name="Path 78" d="M39.822,7.5H35.336a.679.679,0,0,1-.52-.258.978.978,0,0,1-.215-.624V3.381a.977.977,0,0,1,.216-.623.679.679,0,0,1,.52-.258h4.486a.818.818,0,0,1,.735.881V6.617A.819.819,0,0,1,39.822,7.5ZM36.07,5.738h3.017V4.261H36.07Z" transform="translate(-29.202 -2.5)" fill="#fb8b70"/>
  <rect id="Rectangle_113" data-name="Rectangle 113" width="1.469" height="4.284" transform="translate(5.633 12.2)" fill="#fb8b70"/>
  <rect id="Rectangle_114" data-name="Rectangle 114" width="1.469" height="4.284" transform="translate(9.569 12.2)" fill="#fb8b70"/>
</svg>
