<svg xmlns="http://www.w3.org/2000/svg" xmlns:xlink="http://www.w3.org/1999/xlink" width="19.883" height="18" viewBox="0 0 19.883 18">
  <defs>
    <clipPath id="clip-path">
      <rect id="Rectangle_1793" data-name="Rectangle 1793" width="19.883" height="18" fill="#005a9a" stroke="#005a9a" stroke-width="0.3"/>
    </clipPath>
  </defs>
  <g id="Group_4418" data-name="Group 4418" transform="translate(0 0)">
    <g id="Group_4417" data-name="Group 4417" transform="translate(0 0)" clip-path="url(#clip-path)">
      <path id="Path_2348" data-name="Path 2348" d="M0,16.923V1.078a.22.22,0,0,0,.028-.05A1.282,1.282,0,0,1,1.354,0q8.59,0,17.18,0a1.285,1.285,0,0,1,1.349,1.359q0,7.638,0,15.277A1.285,1.285,0,0,1,18.534,18q-8.589,0-17.179-.005a1.684,1.684,0,0,1-.67-.156A1.3,1.3,0,0,1,0,16.923M.777,3.664V16.591c0,.447.186.633.641.633H18.462c.462,0,.644-.185.644-.648q0-6.348,0-12.7V3.664Zm0-.8H19.1c0-.545.008-1.075-.007-1.6a.6.6,0,0,0-.149-.324.584.584,0,0,0-.5-.157H1.428a1.274,1.274,0,0,0-.25.02.475.475,0,0,0-.394.446c-.01.535,0,1.071,0,1.618" transform="translate(0 0)" fill="#005a9a" stroke="#005a9a" stroke-width="0.3"/>
      <path id="Path_2349" data-name="Path 2349" d="M3.837,16.274v-.216q0-1.455,0-2.911c0-.368.134-.5.5-.506q.845,0,1.689,0c.382,0,.516.135.516.513q0,1.436,0,2.873v.245h.985V10.7c0-.411.12-.531.532-.531H9.672c.456,0,.564.107.564.557v5.566c.155,0,.289,0,.423,0,.3,0,.477.157.473.4s-.176.379-.466.379q-1.979,0-3.96,0H3.7a1.78,1.78,0,0,1-.233-.009.378.378,0,0,1-.329-.352.371.371,0,0,1,.3-.4,3.461,3.461,0,0,1,.4-.032m4.482,0H9.445V10.952H8.318ZM5.757,13.43H4.624v2.844H5.757Z" transform="translate(-1.154 -3.74)" fill="#005a9a" stroke="#005a9a" stroke-width="0.3"/>
      <path id="Path_2350" data-name="Path 2350" d="M21.45,14.09a2.99,2.99,0,1,1,3.012-2.962A2.98,2.98,0,0,1,21.45,14.09m-.365-5.136A2.128,2.128,0,0,0,19.342,10.5a2.206,2.206,0,0,0,1,2.508,2.144,2.144,0,0,0,2.37-.1c-.044-.046-.086-.094-.131-.138-.439-.439-.874-.88-1.318-1.315a.566.566,0,0,1-.184-.446c.008-.394,0-.789,0-1.183V8.953m.8-.023a.381.381,0,0,0-.02.074c0,.614,0,1.227,0,1.842a.217.217,0,0,0,.043.14c.454.459.911.914,1.381,1.383a2.218,2.218,0,0,0-1.4-3.438" transform="translate(-6.801 -2.985)" fill="#005a9a" stroke="#005a9a" stroke-width="0.3"/>
      <path id="Path_2351" data-name="Path 2351" d="M12.916,23.318h6.4c.356,0,.54.13.541.383s-.189.394-.537.394H6.515a1.081,1.081,0,0,1-.212-.015.382.382,0,0,1,.053-.758c.071-.005.142,0,.214,0h6.347" transform="translate(-2.202 -8.58)" fill="#005a9a" stroke="#005a9a" stroke-width="0.3"/>
      <path id="Path_2352" data-name="Path 2352" d="M21.461,20.629c-.841,0-1.682,0-2.524,0-.274,0-.434-.131-.451-.351a.372.372,0,0,1,.306-.409,1.18,1.18,0,0,1,.232-.015h4.892c.355,0,.54.131.545.384s-.183.392-.534.392H21.461" transform="translate(-6.802 -7.305)" fill="#005a9a" stroke="#005a9a" stroke-width="0.3"/>
      <path id="Path_2353" data-name="Path 2353" d="M3.534,23.324a.384.384,0,1,1-.4.364.379.379,0,0,1,.4-.364" transform="translate(-1.154 -8.583)" fill="#005a9a" stroke="#005a9a" stroke-width="0.3"/>
      <path id="Path_2354" data-name="Path 2354" d="M5.356,3.111a.381.381,0,0,1-.379-.384.4.4,0,0,1,.4-.386.393.393,0,0,1,.369.4.385.385,0,0,1-.394.371" transform="translate(-1.831 -0.861)" fill="#005a9a" stroke="#005a9a" stroke-width="0.3"/>
      <path id="Path_2355" data-name="Path 2355" d="M3.014,3.11a.378.378,0,0,1-.379-.382.39.39,0,0,1,.377-.39.386.386,0,1,1,0,.772" transform="translate(-0.97 -0.86)" fill="#005a9a" stroke="#005a9a" stroke-width="0.3"/>
      <path id="Path_2356" data-name="Path 2356" d="M8.154,2.729a.377.377,0,0,1-.376.384.4.4,0,0,1-.4-.391.385.385,0,0,1,.392-.372.375.375,0,0,1,.38.379" transform="translate(-2.716 -0.865)" fill="#005a9a" stroke="#005a9a" stroke-width="0.3"/>
    </g>
  </g>
</svg>
