<svg id="update" xmlns="http://www.w3.org/2000/svg" width="20.667" height="20.667" viewBox="0 0 20.667 20.667">
  <g id="Group_4736" data-name="Group 4736">
    <path id="Path_2738" data-name="Path 2738" d="M10.333,20.667a10.148,10.148,0,0,1-8.611-4.65v4.65H0v-7.75H7.75v1.722H2.842a8.539,8.539,0,0,0,7.492,4.306,8.636,8.636,0,0,0,8.611-8.611h1.722A10.364,10.364,0,0,1,10.333,20.667ZM1.722,10.333H0A10.364,10.364,0,0,1,10.333,0a10.148,10.148,0,0,1,8.611,4.65V0h1.722V7.75h-7.75V6.028h4.908a8.539,8.539,0,0,0-7.492-4.306A8.636,8.636,0,0,0,1.722,10.333Z" fill="#e89911"/>
  </g>
</svg>
