<svg xmlns="http://www.w3.org/2000/svg" xmlns:xlink="http://www.w3.org/1999/xlink" width="15.879" height="20" viewBox="0 0 15.879 20">
  <defs>
    <clipPath id="clip-path">
      <rect id="Rectangle_1805" data-name="Rectangle 1805" width="15.879" height="20" fill="#005a9a"/>
    </clipPath>
  </defs>
  <g id="Group_4447" data-name="Group 4447" transform="translate(0 0)">
    <g id="Group_4446" data-name="Group 4446" transform="translate(0 0)" clip-path="url(#clip-path)">
      <path id="Path_2419" data-name="Path 2419" d="M0,9.978Q0,6.311,0,2.643A2.628,2.628,0,0,1,2.058.035a1.27,1.27,0,0,1,.29-.03Q6.4,0,10.446,0a.506.506,0,0,1,.4.167l4.846,5.082a.682.682,0,0,1,.193.495c0,3.853,0,7.707,0,11.56A2.635,2.635,0,0,1,13.154,20Q7.941,20,2.729,20A2.64,2.64,0,0,1,0,17.274q0-3.648,0-7.3M9.973.947c-.079,0-.137-.011-.194-.011q-3.531,0-7.062,0A1.666,1.666,0,0,0,.972,2.7q0,7.277,0,14.555a1.67,1.67,0,0,0,1.764,1.768q5.2,0,10.407,0a1.935,1.935,0,0,0,.522-.06,1.669,1.669,0,0,0,1.242-1.711q0-5.468,0-10.935V6.11h-.229q-1.242,0-2.484,0A2.112,2.112,0,0,1,9.973,3.886q0-1.36,0-2.719V.947M14.24,5.14,10.961,1.7a.869.869,0,0,0-.021.116c0,.718-.014,1.435,0,2.152a1.135,1.135,0,0,0,1.215,1.173c.456.005.913,0,1.37,0h.713" transform="translate(0 0)" fill="#005a9a"/>
      <path id="Path_2420" data-name="Path 2420" d="M13.8,16.131v.212q0,2.465,0,4.93a.492.492,0,0,1-.433.553.476.476,0,0,1-.515-.381,1.451,1.451,0,0,1-.018-.272q0-2.406,0-4.813v-.229l-.051-.034c-.042.054-.081.11-.127.16l-1.73,1.864a.547.547,0,0,1-.528.223.473.473,0,0,1-.3-.753,4.2,4.2,0,0,1,.3-.334l2.455-2.633c.338-.362.584-.366.917-.009q1.341,1.438,2.682,2.876a.516.516,0,0,1,.145.553.46.46,0,0,1-.392.311.505.505,0,0,1-.46-.2q-.885-.953-1.771-1.906a1.407,1.407,0,0,1-.111-.157l-.06.042" transform="translate(-5.382 -7.724)" fill="#005a9a"/>
      <path id="Path_2421" data-name="Path 2421" d="M12,33.987c1.3,0,2.6,0,3.893.006a.767.767,0,0,1,.4.125.4.4,0,0,1,.163.45.472.472,0,0,1-.347.362.87.87,0,0,1-.232.025q-3.872,0-7.745,0A.814.814,0,0,1,7.8,34.9a.466.466,0,0,1-.264-.534.5.5,0,0,1,.509-.374q1.975,0,3.951,0" transform="translate(-4.05 -18.294)" fill="#005a9a"/>
    </g>
  </g>
</svg>
