<svg xmlns="http://www.w3.org/2000/svg" xmlns:xlink="http://www.w3.org/1999/xlink" width="15.879" height="20" viewBox="0 0 15.879 20">
  <defs>
    <clipPath id="clip-path">
      <rect id="Rectangle_1795" data-name="Rectangle 1795" width="15.879" height="20" fill="#005a9a"/>
    </clipPath>
  </defs>
  <g id="Group_4422" data-name="Group 4422" transform="translate(0 0)">
    <g id="Group_4421" data-name="Group 4421" transform="translate(0 0)" clip-path="url(#clip-path)">
      <path id="Path_2365" data-name="Path 2365" d="M0,9.978Q0,6.311,0,2.644A2.627,2.627,0,0,1,2.059.035a1.291,1.291,0,0,1,.29-.03Q6.4,0,10.446,0a.508.508,0,0,1,.4.168l4.845,5.082a.683.683,0,0,1,.193.5c0,3.853,0,7.706,0,11.56A2.636,2.636,0,0,1,13.154,20Q7.943,20,2.729,20A2.64,2.64,0,0,1,0,17.274q0-3.648,0-7.3M9.972.948c-.079,0-.136-.01-.194-.01q-3.531,0-7.062,0A1.667,1.667,0,0,0,.972,2.705q0,7.277,0,14.555a1.669,1.669,0,0,0,1.764,1.768q5.2,0,10.407,0a1.937,1.937,0,0,0,.521-.059,1.671,1.671,0,0,0,1.242-1.711q0-5.468,0-10.935V6.11H12.194A2.112,2.112,0,0,1,9.973,3.886c0-.906,0-1.813,0-2.719V.948M14.24,5.14,10.961,1.7a.989.989,0,0,0-.022.116c0,.717-.014,1.436,0,2.152A1.136,1.136,0,0,0,12.158,5.14c.456.005.913,0,1.369,0h.713" transform="translate(0 0)" fill="#005a9a"/>
      <path id="Path_2366" data-name="Path 2366" d="M9.311,9.689V9.9q0,2.465,0,4.93a.491.491,0,0,1-.432.552A.477.477,0,0,1,8.363,15a1.479,1.479,0,0,1-.018-.272q0-2.407,0-4.813V9.689l-.051-.034c-.042.054-.081.11-.127.159q-.864.933-1.73,1.865a.545.545,0,0,1-.528.223.472.472,0,0,1-.3-.753,4.032,4.032,0,0,1,.3-.334L8.363,8.182c.338-.363.584-.367.917-.009q1.341,1.438,2.682,2.875a.516.516,0,0,1,.145.552.459.459,0,0,1-.392.312.5.5,0,0,1-.46-.2q-.886-.953-1.772-1.906a1.382,1.382,0,0,1-.111-.156l-.06.042" transform="translate(-0.893 -1.281)" fill="#005a9a"/>
      <path id="Path_2367" data-name="Path 2367" d="M8.618,18.727c1.3,0,2.6,0,3.893.005a.773.773,0,0,1,.395.125.4.4,0,0,1,.163.451.473.473,0,0,1-.346.362.865.865,0,0,1-.232.025q-3.873,0-7.746,0a.8.8,0,0,1-.322-.059.467.467,0,0,1-.264-.534.5.5,0,0,1,.509-.374q1.976,0,3.951,0" transform="translate(-0.672 -3.033)" fill="#005a9a"/>
    </g>
  </g>
</svg>
