<svg xmlns="http://www.w3.org/2000/svg" xmlns:xlink="http://www.w3.org/1999/xlink" width="17.72" height="20.83" viewBox="0 0 17.72 20.83">
  <defs>
    <clipPath id="clip-path">
      <rect id="Rectangle_1803" data-name="Rectangle 1803" width="17.72" height="20.83" fill="#005a9a"/>
    </clipPath>
  </defs>
  <g id="Group_4443" data-name="Group 4443" transform="translate(0 0)">
    <g id="Group_4442" data-name="Group 4442" transform="translate(0 0)" clip-path="url(#clip-path)">
      <path id="Path_2407" data-name="Path 2407" d="M11.555,0c.2.031.4.055.6.1a4.123,4.123,0,0,1,3.461,3.7,9.993,9.993,0,0,1-.2,3.992,4.769,4.769,0,0,1-1.55,2.564,4.076,4.076,0,0,1-2.768.871,3.968,3.968,0,0,1-2.617-.955A4.627,4.627,0,0,1,7.163,8.2a9.563,9.563,0,0,1-.389-3.834,5.187,5.187,0,0,1,.7-2.394,4.019,4.019,0,0,1,2.9-1.894c.139-.023.277-.052.416-.079Zm3.009,5.107c-.027-.33-.04-.669-.083-1a3.644,3.644,0,0,0-.593-1.666,2.878,2.878,0,0,0-1.976-1.2A3.593,3.593,0,0,0,9.47,1.6a3.1,3.1,0,0,0-1.5,2.474A9.178,9.178,0,0,0,8.022,6.9,4.343,4.343,0,0,0,8.986,9.13a3,3,0,0,0,2.979.851,2.819,2.819,0,0,0,2.146-1.933,7.815,7.815,0,0,0,.453-2.941" transform="translate(-2.371 0)" fill="#005a9a"/>
      <path id="Path_2408" data-name="Path 2408" d="M8.765,26.909a18,18,0,0,1-6.9-1.348c-.355-.149-.688-.352-1.046-.494a1.18,1.18,0,0,1-.741-1.089,9.105,9.105,0,0,1,.038-2.614,2.792,2.792,0,0,1,2.116-2.434,11.848,11.848,0,0,0,3.287-1.519.6.6,0,0,1,.784,0,.568.568,0,0,1-.093.933,19.375,19.375,0,0,1-1.773.987,12.344,12.344,0,0,1-1.859.7A1.734,1.734,0,0,0,1.26,21.536a8.186,8.186,0,0,0-.045,2.209.379.379,0,0,0,.232.339A15.052,15.052,0,0,0,5.7,25.469a17.91,17.91,0,0,0,7.226-.182,13.636,13.636,0,0,0,3.388-1.229.347.347,0,0,0,.168-.217,6.709,6.709,0,0,0-.1-2.6,1.553,1.553,0,0,0-1.151-1.168,13.075,13.075,0,0,1-3.677-1.687.641.641,0,0,1-.328-.465.548.548,0,0,1,.247-.544.54.54,0,0,1,.613-.028c.217.126.428.26.644.389a12.336,12.336,0,0,0,2.9,1.246,2.586,2.586,0,0,1,1.838,1.843,7.6,7.6,0,0,1,.2,2.9c-.014.168-.043.336-.066.5a.953.953,0,0,1-.54.756A15.369,15.369,0,0,1,14,26.214a19.16,19.16,0,0,1-5.234.695" transform="translate(0 -6.079)" fill="#005a9a"/>
    </g>
  </g>
</svg>
