<svg id="Group_4441" data-name="Group 4441" xmlns="http://www.w3.org/2000/svg" xmlns:xlink="http://www.w3.org/1999/xlink" width="19.951" height="21.341" viewBox="0 0 19.951 21.341">
  <defs>
    <clipPath id="clip-path">
      <rect id="Rectangle_1802" data-name="Rectangle 1802" width="19.951" height="21.341" fill="#005a9a"/>
    </clipPath>
  </defs>
  <g id="Group_4440" data-name="Group 4440" clip-path="url(#clip-path)">
    <path id="Path_2405" data-name="Path 2405" d="M11.744,22.154c-.426,0-.841,0-1.257,0a15.091,15.091,0,0,1-5.012-.965c-.9-.329-1.776-.743-2.664-1.116a.48.48,0,0,1-.311-.517,10.6,10.6,0,0,1,1.714-5.846,7.656,7.656,0,0,1,4.308-3.2c.033-.01.065-.025.1-.04a4.221,4.221,0,1,1,3.9,0,8.011,8.011,0,0,1,4.964,4.139c.359-.36.7-.715,1.058-1.058a2.041,2.041,0,0,1,2.2-.513,2.091,2.091,0,0,1,.905,3.34c-.305.353-.651.672-.982,1Q18.058,20,15.439,22.605a.91.91,0,0,1-.408.229c-1,.241-2.005.466-3.009.695-.359.082-.556-.108-.482-.466.065-.312.139-.622.2-.908m-1-.7c.236-.013.6-.042.966-.05.175,0,.235-.084.267-.242.076-.372.156-.744.259-1.108a1.018,1.018,0,0,1,.234-.427q2.162-2.181,4.342-4.344c.11-.11.144-.193.055-.333-.188-.3-.346-.611-.543-.9a6.818,6.818,0,0,0-11.114-.511,9.376,9.376,0,0,0-2,5.818.274.274,0,0,0,.149.2c.8.338,1.592.7,2.409.988a14.821,14.821,0,0,0,4.974.912M14.087,6.724a3.51,3.51,0,1,0-3.533,3.5,3.512,3.512,0,0,0,3.533-3.5m6.4,9.8L18.544,14.58l-5.392,5.39,1.936,1.945,5.394-5.393M19.1,14.007l1.959,1.975A1.391,1.391,0,0,0,19.1,14.007M12.332,22.74l2.008-.463L12.8,20.735l-.465,2.005" transform="translate(-2.353 -2.353)" fill="#005a9a"/>
    <path id="Path_2406" data-name="Path 2406" d="M9.516,21.341a.491.491,0,0,1-.354-.13.56.56,0,0,1-.118-.531c.046-.22.1-.437.144-.648l.019-.084H8.99c-.282,0-.573,0-.858,0a15.122,15.122,0,0,1-5.06-.974c-.614-.224-1.222-.49-1.811-.747C.98,18.1.689,17.975.4,17.854A.626.626,0,0,1,0,17.2,10.687,10.687,0,0,1,1.74,11.274,7.838,7.838,0,0,1,5.911,8.083,4.267,4.267,0,0,1,3.932,5.154,4.4,4.4,0,0,1,5.023,1.4a4.364,4.364,0,0,1,7.492,3.76A4.294,4.294,0,0,1,10.54,8.079a8.076,8.076,0,0,1,4.628,3.936l.194-.2c.248-.251.483-.488.729-.726a2.2,2.2,0,0,1,2.351-.546,2.238,2.238,0,0,1,.969,3.574c-.229.265-.482.513-.727.753-.088.086-.175.172-.262.258l-.261.261c-1.628,1.628-3.311,3.312-4.972,4.962a1.057,1.057,0,0,1-.476.268c-.823.2-1.662.389-2.474.573l-.537.122a.841.841,0,0,1-.186.022m-.125-1.686h.183l-.04.179c-.019.086-.04.175-.06.264-.048.209-.1.425-.143.641A.289.289,0,0,0,9.367,21a.3.3,0,0,0,.27.031l.537-.122c.811-.184,1.649-.374,2.47-.572a.763.763,0,0,0,.339-.191c1.661-1.65,3.344-3.333,4.971-4.961l.261-.261c.087-.087.176-.174.264-.26.241-.236.489-.479.71-.735a1.945,1.945,0,0,0-.841-3.105,1.9,1.9,0,0,0-2.053.479c-.243.235-.477.471-.724.721l-.332.335L15.1,12.5l-.094-.173A7.831,7.831,0,0,0,10.131,8.26l-.357-.1.33-.169a4,4,0,0,0,2.122-2.88A4.078,4.078,0,0,0,8.245.293H8.223A4.05,4.05,0,0,0,5.237,1.6,4.1,4.1,0,0,0,4.22,5.1,3.971,3.971,0,0,0,6.339,7.986l.294.149-.307.118-.034.014a.809.809,0,0,1-.082.03,7.544,7.544,0,0,0-4.227,3.14A10.4,10.4,0,0,0,.294,17.205a.337.337,0,0,0,.222.379c.289.122.582.249.864.373.584.255,1.188.52,1.793.74a14.834,14.834,0,0,0,4.963.957c.283,0,.56,0,.854,0h.4m.392.928.577-2.491,1.917,1.916Zm.744-1.911-.352,1.519L11.7,19.84Zm2.208,1.1-2.143-2.152,5.6-5.6,2.145,2.148Zm-1.729-2.152,1.73,1.737,5.187-5.186-1.731-1.734ZM8.4,19.25h0a14.852,14.852,0,0,1-5.022-.921c-.628-.223-1.249-.491-1.851-.749l-.566-.242A.413.413,0,0,1,.716,17,9.477,9.477,0,0,1,2.747,11.1,7.067,7.067,0,0,1,8.541,8.424,7.092,7.092,0,0,1,14.1,11.617c.114.168.216.344.314.515.074.129.151.262.231.389a.37.37,0,0,1-.075.515c-1.71,1.7-3.089,3.081-4.341,4.344a.866.866,0,0,0-.2.364c-.1.364-.184.743-.257,1.1a.391.391,0,0,1-.407.359c-.266.006-.534.023-.749.037L8.4,19.25ZM1.009,17a.18.18,0,0,0,.06.066l.568.243c.6.257,1.214.522,1.833.742a14.57,14.57,0,0,0,4.921.9l.2-.013c.218-.014.489-.031.761-.037.082,0,.1-.007.127-.125.073-.36.156-.745.262-1.119a1.17,1.17,0,0,1,.271-.49c1.252-1.263,2.632-2.644,4.342-4.345.08-.079.075-.087.035-.15-.084-.132-.162-.268-.238-.4-.1-.166-.195-.338-.3-.5A6.8,6.8,0,0,0,8.528,8.717a6.778,6.778,0,0,0-5.555,2.565A9.19,9.19,0,0,0,1.009,17m0,0ZM18.7,13.833l-2.161-2.179.1-.1a1.49,1.49,0,0,1,1.065-.439h.015a1.534,1.534,0,0,1,1.1.478,1.572,1.572,0,0,1,.432,1.127,1.435,1.435,0,0,1-.452,1.021ZM16.959,11.66,18.7,13.418a1.159,1.159,0,0,0,.261-.711,1.278,1.278,0,0,0-.351-.916,1.244,1.244,0,0,0-.893-.387,1.2,1.2,0,0,0-.761.256M8.211,8.015H8.2A3.665,3.665,0,0,1,4.567,4.369,3.659,3.659,0,0,1,8.2.7h0A3.658,3.658,0,0,1,11.88,4.371a3.609,3.609,0,0,1-1.071,2.57,3.656,3.656,0,0,1-2.6,1.074M8.2,1h0a3.363,3.363,0,0,0,0,6.726h.009A3.365,3.365,0,0,0,10.6,6.734a3.358,3.358,0,0,0,0-4.753A3.369,3.369,0,0,0,8.2,1" transform="translate(-0.001 0.001)" fill="#005a9a"/>
  </g>
</svg>
